<?xml version="1.0" encoding="UTF-8" standalone="no"?>
<!-- Generator: Adobe Illustrator 16.0.0, SVG Export Plug-In . SVG Version: 6.00 Build 0)  -->

<svg
   xmlns:dc="http://purl.org/dc/elements/1.1/"
   xmlns:cc="http://creativecommons.org/ns#"
   xmlns:rdf="http://www.w3.org/1999/02/22-rdf-syntax-ns#"
   xmlns:svg="http://www.w3.org/2000/svg"
   xmlns="http://www.w3.org/2000/svg"
   xmlns:sodipodi="http://sodipodi.sourceforge.net/DTD/sodipodi-0.dtd"
   xmlns:inkscape="http://www.inkscape.org/namespaces/inkscape"
   version="1.1"
   id="Layer_1"
   x="0px"
   y="0px"
   width="1000"
   height="1000"
   viewBox="0 0 999.9999 999.99998"
   enable-background="new 0 0 595.28 841.89"
   xml:space="preserve"
   inkscape:version="0.91 r13725"
   sodipodi:docname="arrow_mid.svg"><metadata
   id="metadata9"><rdf:RDF><cc:Work
       rdf:about=""><dc:format>image/svg+xml</dc:format><dc:type
         rdf:resource="http://purl.org/dc/dcmitype/StillImage" /><dc:title /></cc:Work></rdf:RDF></metadata><defs
   id="defs7" /><sodipodi:namedview
   pagecolor="#ffffff"
   bordercolor="#666666"
   borderopacity="1"
   objecttolerance="10"
   gridtolerance="10"
   guidetolerance="10"
   inkscape:pageopacity="0"
   inkscape:pageshadow="2"
   inkscape:window-width="1360"
   inkscape:window-height="715"
   id="namedview5"
   showgrid="false"
   inkscape:zoom="0.1767767"
   inkscape:cx="433.97695"
   inkscape:cy="415.38502"
   inkscape:window-x="-8"
   inkscape:window-y="-8"
   inkscape:window-maximized="1"
   inkscape:current-layer="Layer_1" />

<path
   style="fill:#000000"
   d="m 545.89267,755.74417 c -22.71306,-22.71299 -15.42176,-35.85851 41.16522,-74.21733 29.81332,-20.20963 68.96188,-52.14654 86.99679,-70.97092 l 32.79075,-34.22619 -99.70002,0 c -219.84314,0 -460.88125,-77.96867 -528.159777,-170.84398 -19.02237,-26.25961 -31.82256,-52.2163 -28.44487,-57.68154 12.38991,-20.04729 39.72329,-9.10162 53.166107,21.29043 17.70223,40.02183 35.25075,54.77231 104.95902,88.22374 159.35976,76.47315 464.62056,105.1324 576.25684,54.10154 29.66584,-13.56076 53.93789,-29.3586 53.93789,-35.10634 0,-5.74771 -24.02643,-13.74358 -53.39208,-17.76859 C 714.70238,448.84541 655.13932,418.68957 569.38917,349.14742 491.06692,285.62918 466.43114,251.54091 485.24875,232.7233 c 8.24732,-8.24731 32.90357,7.61655 80.89425,52.04746 109.40222,101.28716 157.43431,124.61321 268.61477,130.44869 114.80139,6.02554 141.68589,24.83803 90.2089,63.12377 -17.87874,13.29721 -66.28374,58.3115 -107.56665,100.03172 -64.65678,65.34169 -229.66763,190.99575 -250.81861,190.99575 -3.88427,0 -13.19421,-6.13199 -20.68874,-13.62652 z"
   id="path4158"
   inkscape:connector-curvature="0" /></svg>