<?xml version="1.0" encoding="UTF-8" standalone="no"?>
<!-- Generator: Adobe Illustrator 16.0.0, SVG Export Plug-In . SVG Version: 6.00 Build 0)  -->

<svg
   xmlns:dc="http://purl.org/dc/elements/1.1/"
   xmlns:cc="http://creativecommons.org/ns#"
   xmlns:rdf="http://www.w3.org/1999/02/22-rdf-syntax-ns#"
   xmlns:svg="http://www.w3.org/2000/svg"
   xmlns="http://www.w3.org/2000/svg"
   xmlns:sodipodi="http://sodipodi.sourceforge.net/DTD/sodipodi-0.dtd"
   xmlns:inkscape="http://www.inkscape.org/namespaces/inkscape"
   version="1.1"
   id="Layer_1"
   x="0px"
   y="0px"
   width="1000"
   height="1000"
   viewBox="0 0 999.9999 999.99998"
   enable-background="new 0 0 595.28 841.89"
   xml:space="preserve"
   inkscape:version="0.91 r13725"
   sodipodi:docname="blog.svg"><metadata
   id="metadata9"><rdf:RDF><cc:Work
       rdf:about=""><dc:format>image/svg+xml</dc:format><dc:type
         rdf:resource="http://purl.org/dc/dcmitype/StillImage" /><dc:title></dc:title></cc:Work></rdf:RDF></metadata><defs
   id="defs7" /><sodipodi:namedview
   pagecolor="#ffffff"
   bordercolor="#666666"
   borderopacity="1"
   objecttolerance="10"
   gridtolerance="10"
   guidetolerance="10"
   inkscape:pageopacity="0"
   inkscape:pageshadow="2"
   inkscape:window-width="1360"
   inkscape:window-height="715"
   id="namedview5"
   showgrid="false"
   inkscape:zoom="0.1767767"
   inkscape:cx="-609.71263"
   inkscape:cy="409.72817"
   inkscape:window-x="-8"
   inkscape:window-y="-8"
   inkscape:window-maximized="1"
   inkscape:current-layer="Layer_1" />

<path
   style="fill:#000000"
   d="m 434.74389,892.03263 c 28.132,-19.11625 66.23713,-74.3542 66.23713,-96.01871 0,-13.70521 -21.87712,-20.74736 -64.89957,-20.89097 C 389.56747,774.96727 293.19204,747.96489 232.99794,718.22242 95.336686,650.20271 25.38725,530.65604 57.86967,418.92039 90.333853,307.24755 198.11986,222.39176 355.27805,184.78223 c 56.69057,-13.56662 82.6212,-15.37887 177.75091,-12.42263 l 111.37769,3.46115 22.70796,-40.23635 c 15.29742,-27.10548 28.98527,-41.811836 41.94315,-45.064056 49.72578,-12.48038 184.79443,72.205966 184.79443,115.863766 0,9.73882 -6.99945,31.42695 -15.5543,48.19585 l -15.55422,30.4889 27.2169,33.2147 c 43.47981,53.06138 60.25828,97.30252 60.03722,158.30523 -0.1647,45.42087 -3.79665,59.62788 -25.72929,100.64249 -27.03293,50.55233 -69.9523,93.43856 -126.92428,126.82638 -19.01987,11.14629 -58.69857,44.69818 -88.17495,74.55964 -62.08732,62.89861 -135.54703,103.39967 -219.52107,121.03026 -78.4093,16.46229 -88.31526,15.08843 -54.90431,-7.61493 z M 282.34439,547.89872 c 19.89256,-19.89251 16.37006,-43.03614 -9.47615,-62.26018 -18.90972,-14.06482 -21.63573,-14.28583 -38.65646,-3.13344 -25.31878,16.58956 -29.49422,39.10794 -11.49454,61.99083 18.12636,23.04391 38.8059,24.22408 59.62715,3.40279 z m 102.28857,9.79291 c 17.37921,-11.60443 26.52988,-38.96478 18.22294,-54.48641 -18.62662,-34.80424 -57.15332,-34.72487 -75.82105,0.15612 -16.61161,31.03913 28.60449,73.68987 57.59811,54.33029 z m 123.35492,-14.12481 c 8.61234,-10.9488 15.65879,-23.00276 15.65879,-26.7867 0,-9.66303 -35.36887,-43.96896 -45.33129,-43.96896 -12.39749,0 -45.33129,35.42884 -45.33129,48.76552 0,16.33316 27.32471,41.89702 44.78293,41.89702 8.00914,0 21.60853,-8.95808 30.22086,-19.90688 z M 670.97336,473.3713 c 82.67936,-48.22933 74.90988,-38.60397 173.58513,-215.05178 l 27.01979,-48.31592 -19.3866,-23.0397 c -21.24557,-25.24892 -102.45937,-69.24782 -127.81867,-69.24782 -12.65786,0 -28.82693,22.70326 -78.12296,109.69411 l -62.16166,109.69414 0,90.51905 c 0,49.78554 2.54988,90.36173 5.66641,90.16935 3.11652,-0.19237 39.66488,-20.182 81.21856,-44.42143 z m -47.2201,-17.33641 c -14.98221,-7.22571 -16.99923,-13.88834 -16.99923,-56.1528 0,-26.37485 2.54989,-47.916 5.66641,-47.86908 3.11653,0.0468 30.76665,15.01963 61.44475,33.27275 l 55.77834,33.1876 -40.66791,23.32034 c -45.56324,26.12759 -42.13029,25.37801 -65.22236,14.24119 z"
   id="path4157"
   inkscape:connector-curvature="0" /></svg>