<?xml version="1.0" encoding="UTF-8" standalone="no"?>
<!-- Generator: Adobe Illustrator 16.0.0, SVG Export Plug-In . SVG Version: 6.00 Build 0)  -->

<svg
   xmlns:dc="http://purl.org/dc/elements/1.1/"
   xmlns:cc="http://creativecommons.org/ns#"
   xmlns:rdf="http://www.w3.org/1999/02/22-rdf-syntax-ns#"
   xmlns:svg="http://www.w3.org/2000/svg"
   xmlns="http://www.w3.org/2000/svg"
   xmlns:sodipodi="http://sodipodi.sourceforge.net/DTD/sodipodi-0.dtd"
   xmlns:inkscape="http://www.inkscape.org/namespaces/inkscape"
   version="1.1"
   id="Layer_1"
   x="0px"
   y="0px"
   width="1000"
   height="1000"
   viewBox="0 0 999.9999 999.99998"
   enable-background="new 0 0 595.28 841.89"
   xml:space="preserve"
   inkscape:version="0.91 r13725"
   sodipodi:docname="camera.svg"><metadata
   id="metadata9"><rdf:RDF><cc:Work
       rdf:about=""><dc:format>image/svg+xml</dc:format><dc:type
         rdf:resource="http://purl.org/dc/dcmitype/StillImage" /><dc:title></dc:title></cc:Work></rdf:RDF></metadata><defs
   id="defs7" /><sodipodi:namedview
   pagecolor="#ffffff"
   bordercolor="#666666"
   borderopacity="1"
   objecttolerance="10"
   gridtolerance="10"
   guidetolerance="10"
   inkscape:pageopacity="0"
   inkscape:pageshadow="2"
   inkscape:window-width="1360"
   inkscape:window-height="715"
   id="namedview5"
   showgrid="false"
   inkscape:zoom="0.1767767"
   inkscape:cx="-609.71263"
   inkscape:cy="409.72817"
   inkscape:window-x="-8"
   inkscape:window-y="-8"
   inkscape:window-maximized="1"
   inkscape:current-layer="Layer_1" />

<path
   style="fill:#000000"
   d="m 68.996584,811.74507 -18.99666,-18.99669 1.82971,-240.92925 1.82971,-240.92926 14.61176,-14.62174 c 13.89627,-13.90576 20.03517,-14.71976 125.367496,-16.62399 l 110.75573,-2.00223 21.51212,-41.49119 c 34.94533,-67.40013 33.62347,-66.89223 174.09347,-66.89223 140.47,0 139.14813,-0.50793 174.09344,66.89223 l 21.51215,41.49119 110.75573,2.00223 c 105.33232,1.90423 111.47131,2.71823 125.36751,16.62399 l 14.6118,14.62174 1.8296,240.92926 1.8298,240.92925 -18.9967,18.99669 -18.9966,18.99656 -412.00673,0 -412.006686,0 -18.99665,-18.99656 z M 577.06593,762.84693 c 62.04968,-19.79603 124.14395,-86.88085 142.10777,-153.52929 3.78728,-14.05125 5.7637,-44.39599 4.39212,-67.43264 -4.65319,-78.14986 -49.87822,-146.45477 -122.19745,-184.55875 -30.87766,-16.26913 -40.01229,-17.8803 -101.36845,-17.8803 -61.35616,0 -70.49081,1.61117 -101.36845,17.8803 -45.27497,23.85477 -82.47143,62.20868 -103.19064,106.40162 -14.44625,30.8131 -17.00567,44.9712 -17.00567,94.07167 0,53.65324 1.58013,60.71394 22.02701,98.42624 54.79806,101.06985 163.12324,142.82538 276.60376,106.62115 z M 451.19832,651.52835 c -36.94584,-16.77881 -56.00446,-46.02594 -58.71129,-90.09774 -1.73908,-28.31499 0.86253,-40.9797 12.52029,-60.94872 17.49138,-29.96179 60.80187,-55.07021 94.9926,-55.07021 34.19072,0 77.50123,25.10842 94.99258,55.07021 19.5051,33.41115 17.34306,86.83481 -4.77097,117.89105 -17.6501,24.78738 -58.29645,45.11028 -90.22161,45.11028 -12.36267,0 -34.3234,-5.37963 -48.8016,-11.95487 z"
   id="path4144"
   inkscape:connector-curvature="0" /></svg>