<?xml version="1.0" encoding="UTF-8" standalone="no"?>
<!-- Generator: Adobe Illustrator 16.0.0, SVG Export Plug-In . SVG Version: 6.00 Build 0)  -->

<svg
   xmlns:dc="http://purl.org/dc/elements/1.1/"
   xmlns:cc="http://creativecommons.org/ns#"
   xmlns:rdf="http://www.w3.org/1999/02/22-rdf-syntax-ns#"
   xmlns:svg="http://www.w3.org/2000/svg"
   xmlns="http://www.w3.org/2000/svg"
   xmlns:sodipodi="http://sodipodi.sourceforge.net/DTD/sodipodi-0.dtd"
   xmlns:inkscape="http://www.inkscape.org/namespaces/inkscape"
   version="1.1"
   id="Layer_1"
   x="0px"
   y="0px"
   width="1000"
   height="1000"
   viewBox="0 0 999.9999 999.99998"
   enable-background="new 0 0 595.28 841.89"
   xml:space="preserve"
   inkscape:version="0.91 r13725"
   sodipodi:docname="photo_download.svg"><metadata
   id="metadata9"><rdf:RDF><cc:Work
       rdf:about=""><dc:format>image/svg+xml</dc:format><dc:type
         rdf:resource="http://purl.org/dc/dcmitype/StillImage" /><dc:title></dc:title></cc:Work></rdf:RDF></metadata><defs
   id="defs7" /><sodipodi:namedview
   pagecolor="#ffffff"
   bordercolor="#666666"
   borderopacity="1"
   objecttolerance="10"
   gridtolerance="10"
   guidetolerance="10"
   inkscape:pageopacity="0"
   inkscape:pageshadow="2"
   inkscape:window-width="1360"
   inkscape:window-height="715"
   id="namedview5"
   showgrid="false"
   inkscape:zoom="0.1767767"
   inkscape:cx="-609.71263"
   inkscape:cy="-44.654377"
   inkscape:window-x="-8"
   inkscape:window-y="-8"
   inkscape:window-maximized="1"
   inkscape:current-layer="Layer_1" />

<path
   style="fill:#000000"
   d="M 631.67339,920.37893 C 542.97019,898.80773 466.7119,820.63653 452.83917,737.05854 l -3.82085,-23.0194 -171.56584,0 -171.56583,0 -17.943596,-17.9431 -17.9431,-17.9436 0,-285.57024 0,-285.57074 14.81492,-17.223176 14.81443,-17.22318 400.066176,0 400.06594,0 15.1193,17.57725 15.1192,17.577236 -1.8391,317.30339 -1.8391,317.30338 -23.1168,46.76021 C 850.70832,895.27538 742.86712,947.4193 631.67339,920.37893 Z m 123.21133,-57.02624 c 20.586,-7.00036 41.1837,-21.2196 64.468,-44.50418 40.5553,-40.55491 54.7917,-75.79191 54.7917,-135.61486 0,-97.97451 -75.0258,-176.26061 -174.9474,-182.5489 -169.10409,-10.6422 -262.81042,185.66628 -149.97228,314.18159 10.31873,11.75254 35.60393,29.78452 56.18935,40.07119 30.47405,15.22792 45.02619,18.70281 78.32357,18.70281 22.49256,0 54.50876,-4.62942 71.14706,-10.28765 z M 641.6551,745.91076 c -40.89872,-62.29652 -40.48297,-77.14434 2.29531,-81.97117 17.77996,-2.00607 18.52145,-3.34868 21.48477,-38.90881 l 3.06926,-36.83105 21.48478,0 21.4848,0 1.8275,38.36568 1.8275,38.36567 19.9642,0 c 21.4287,0 34.6966,9.13606 34.6966,23.89156 0,5.03701 -14.1599,30.72691 -31.4665,57.08812 -26.6223,40.55049 -34.0631,47.92898 -48.3341,47.92898 -14.271,0 -21.71181,-7.37849 -48.33412,-47.92898 z M 392.82701,419.39078 c 4.58542,0 27.8288,16.7758 51.65201,37.27989 23.8232,20.50409 45.51855,36.3876 48.21188,35.29642 2.69333,-1.09069 38.58008,-41.34653 79.74835,-89.45721 52.40798,-61.24561 78.73456,-87.47373 87.80212,-87.47373 8.61684,0 42.36765,30.29967 100.85575,90.54299 l 87.905,90.54298 0.2942,-173.41284 0.2941,-173.41284 -349.89489,0 -349.89493,0 0,224.30795 0,224.30794 117.34469,-89.26078 c 64.53953,-49.09332 121.09635,-89.26077 125.68177,-89.26077 z m -75.79888,-89.02261 c -51.63212,-22.3093 -33.45015,-97.17896 23.60006,-97.17896 42.32447,0 65.67726,57.91412 34.76251,86.2097 -19.59112,17.93131 -35.38137,20.89941 -58.36257,10.96926 z"
   id="path4209"
   inkscape:connector-curvature="0" /></svg>