<?xml version="1.0" encoding="UTF-8" standalone="no"?>
<!-- Generator: Adobe Illustrator 16.0.0, SVG Export Plug-In . SVG Version: 6.00 Build 0)  -->

<svg
   xmlns:dc="http://purl.org/dc/elements/1.1/"
   xmlns:cc="http://creativecommons.org/ns#"
   xmlns:rdf="http://www.w3.org/1999/02/22-rdf-syntax-ns#"
   xmlns:svg="http://www.w3.org/2000/svg"
   xmlns="http://www.w3.org/2000/svg"
   xmlns:sodipodi="http://sodipodi.sourceforge.net/DTD/sodipodi-0.dtd"
   xmlns:inkscape="http://www.inkscape.org/namespaces/inkscape"
   version="1.1"
   id="Layer_1"
   x="0px"
   y="0px"
   width="1000"
   height="1000"
   viewBox="0 0 999.9999 999.99998"
   enable-background="new 0 0 595.28 841.89"
   xml:space="preserve"
   inkscape:version="0.91 r13725"
   sodipodi:docname="photo_upload.svg"><metadata
   id="metadata9"><rdf:RDF><cc:Work
       rdf:about=""><dc:format>image/svg+xml</dc:format><dc:type
         rdf:resource="http://purl.org/dc/dcmitype/StillImage" /><dc:title></dc:title></cc:Work></rdf:RDF></metadata><defs
   id="defs7" /><sodipodi:namedview
   pagecolor="#ffffff"
   bordercolor="#666666"
   borderopacity="1"
   objecttolerance="10"
   gridtolerance="10"
   guidetolerance="10"
   inkscape:pageopacity="0"
   inkscape:pageshadow="2"
   inkscape:window-width="1360"
   inkscape:window-height="715"
   id="namedview5"
   showgrid="false"
   inkscape:zoom="0.1767767"
   inkscape:cx="-609.71263"
   inkscape:cy="409.72817"
   inkscape:window-x="-8"
   inkscape:window-y="-8"
   inkscape:window-maximized="1"
   inkscape:current-layer="Layer_1" />

<path
   style="fill:#000000"
   d="M 631.67336,920.37891 C 542.97015,898.80783 466.7119,820.63658 452.83917,737.05853 l -3.82088,-23.01941 -171.56585,0 -171.56585,0 -17.943321,-17.94334 -17.94333,-17.94329 0,-285.57049 0,-285.57048 14.81477,-17.223185 14.81478,-17.22321 400.065951,0 400.06593,0 15.11939,17.57717 15.11918,17.577195 -1.83916,317.30338 -1.83906,317.30337 -23.11689,46.76032 C 850.70825,895.2753 742.86707,947.41929 631.67336,920.37891 Z m 123.21125,-57.02612 c 20.58605,-7.0006 41.18374,-21.21977 64.46809,-44.50417 40.55528,-40.55521 54.7917,-75.79185 54.7917,-135.61509 0,-97.97464 -75.02588,-176.26028 -174.94745,-182.54871 -169.10403,-10.64233 -262.81038,185.66603 -149.97228,314.18156 10.31877,11.75236 35.60396,29.78429 56.18938,40.07095 30.47407,15.22804 45.0262,18.70299 78.32355,18.70299 22.4926,0 54.50872,-4.62935 71.14701,-10.28753 z m -82.75904,-75.18056 c -5.08538,-3.21929 -9.83014,-19.63918 -11.50252,-39.80632 -2.68823,-32.41636 -3.76094,-34.32679 -19.27437,-34.32679 -19.15287,0 -31.16009,-10.04155 -31.16009,-26.05894 0,-13.4181 57.47325,-100.51197 68.85422,-104.34032 16.85867,-5.67093 27.75852,3.98359 58.72379,52.01471 29.13716,45.19549 31.33339,50.99349 23.69845,62.56353 -4.8614,7.36702 -16.54506,13.56403 -27.6683,14.67534 -18.67719,1.86599 -19.25354,2.81751 -19.25354,31.78869 0,40.07604 -18.25107,58.78855 -42.41764,43.4901 z M 392.82699,419.39079 c 4.5854,0 27.82881,16.77599 51.65202,37.27998 23.82319,20.50401 45.51852,36.38741 48.21186,35.29643 2.69333,-1.09098 38.58008,-41.34677 79.74835,-89.45732 52.40799,-61.24561 78.73458,-87.47373 87.80213,-87.47373 8.61681,0 42.36769,30.29977 100.85574,90.54299 l 87.90503,90.54298 0.29416,-173.41282 0.29409,-173.41283 -349.89493,0 -349.8949,0 0,224.30783 0,224.30784 117.34466,-89.26069 c 64.53958,-49.09337 121.09637,-89.26066 125.68179,-89.26066 z m -75.79888,-89.0224 c -51.63231,-22.3096 -33.45017,-97.179 23.60007,-97.179 42.32446,0 65.67724,57.91407 34.7625,86.20972 -19.59112,17.93134 -35.38136,20.89913 -58.36257,10.96928 z"
   id="path4170"
   inkscape:connector-curvature="0" /></svg>