<?xml version="1.0" encoding="UTF-8" standalone="no"?>
<!-- Generator: Adobe Illustrator 16.0.0, SVG Export Plug-In . SVG Version: 6.00 Build 0)  -->

<svg
   xmlns:dc="http://purl.org/dc/elements/1.1/"
   xmlns:cc="http://creativecommons.org/ns#"
   xmlns:rdf="http://www.w3.org/1999/02/22-rdf-syntax-ns#"
   xmlns:svg="http://www.w3.org/2000/svg"
   xmlns="http://www.w3.org/2000/svg"
   xmlns:sodipodi="http://sodipodi.sourceforge.net/DTD/sodipodi-0.dtd"
   xmlns:inkscape="http://www.inkscape.org/namespaces/inkscape"
   version="1.1"
   id="Layer_1"
   x="0px"
   y="0px"
   width="1000"
   height="1000"
   viewBox="0 0 999.9999 999.99998"
   enable-background="new 0 0 595.28 841.89"
   xml:space="preserve"
   inkscape:version="0.91 r13725"
   sodipodi:docname="photo_publish.svg"><metadata
   id="metadata9"><rdf:RDF><cc:Work
       rdf:about=""><dc:format>image/svg+xml</dc:format><dc:type
         rdf:resource="http://purl.org/dc/dcmitype/StillImage" /><dc:title></dc:title></cc:Work></rdf:RDF></metadata><defs
   id="defs7" /><sodipodi:namedview
   pagecolor="#ffffff"
   bordercolor="#666666"
   borderopacity="1"
   objecttolerance="10"
   gridtolerance="10"
   guidetolerance="10"
   inkscape:pageopacity="0"
   inkscape:pageshadow="2"
   inkscape:window-width="1360"
   inkscape:window-height="715"
   id="namedview5"
   showgrid="false"
   inkscape:zoom="0.1767767"
   inkscape:cx="-609.71263"
   inkscape:cy="409.72817"
   inkscape:window-x="-8"
   inkscape:window-y="-8"
   inkscape:window-maximized="1"
   inkscape:current-layer="Layer_1" />

<path
   style="fill:#000000"
   d="M 157.03088,945.26804 C 120.78572,934.10933 88.817014,908.93872 69.798074,876.58606 l -19.09418,-32.48139 0,-344.8086 0,-344.80861 19.34105,-32.90269 C 82.587334,100.24871 100.9526,81.883441 122.28866,69.341041 l 32.90269,-19.34104 344.80861,0 344.80862,0 32.9027,19.34104 c 21.336,12.5424 39.7013,30.907669 52.2437,52.243729 l 19.341,32.90269 0,344.80861 0,344.8086 -19.341,32.90269 c -12.5424,21.33606 -30.9077,39.70133 -52.2437,52.24372 l -32.9027,19.34105 -334.35988,1.27168 c -183.89792,0.69993 -342.93619,-1.36809 -353.41782,-4.59577 z m 697.6903,-91.25015 21.4336,-21.43359 0,-333.28823 0,-333.28825 -21.4336,-21.43302 -21.433,-21.43358 -333.28822,0 -333.28824,0 -21.43303,21.43358 -21.43358,21.43302 0,333.28825 0,333.28823 21.43358,21.43359 21.43303,21.43302 333.28824,0 333.28822,0 21.433,-21.43302 z M 228.86699,697.20311 c -16.96487,-14.27494 -21.43191,-23.51664 -21.43191,-44.33835 0,-50.40475 42.08866,-78.77462 88.25205,-59.48652 42.41244,17.72163 50.65664,67.61147 16.77149,101.49717 -25.95858,25.95803 -54.56195,26.75436 -83.59163,2.3277 z m 77.83117,-18.17246 c 38.35721,-44.36008 -29.8132,-102.90203 -71.39976,-61.31547 -7.66242,7.66242 -13.93166,20.4071 -13.93166,28.3214 0,48.55574 53.86649,69.38357 85.33142,32.99407 z m 106.48303,-5.30796 c -16.5263,-18.26162 -9.12134,-47.33923 14.32565,-56.25382 27.30884,-10.38299 315.95164,-8.44426 337.19464,2.26473 21.4208,10.79871 26.1052,36.40789 9.9289,54.28277 -11.2802,12.46438 -23.3501,13.35712 -180.59171,13.35712 -158.50218,0 -169.2368,-0.81027 -180.85748,-13.6508 z M 224.53312,544.89049 c -12.58084,-12.58085 -17.09804,-24.62672 -17.09804,-45.59442 0,-38.65145 23.55509,-62.69248 61.4258,-62.69248 37.06324,0 63.95914,26.36372 63.95914,62.69248 0,55.73834 -69.0637,84.81818 -108.2869,45.59442 z m 77.25719,-13.93166 c 9.40388,-9.40387 17.09805,-23.65206 17.09805,-31.66276 0,-18.22206 -29.75189,-48.76082 -47.50473,-48.76082 -22.60997,0 -50.01689,26.7187 -50.01689,48.76082 0,22.04211 27.40692,48.76081 50.01689,48.76081 7.31969,0 21.00281,-7.69418 30.40668,-17.09805 z m 111.6344,-7.78 c -6.0207,-6.02015 -10.94638,-16.76759 -10.94638,-23.88276 0,-7.11518 4.92568,-17.86262 10.94638,-23.88277 9.35205,-9.35205 35.65837,-10.94639 180.61396,-10.94639 144.95561,0 171.26191,1.59434 180.61391,10.94639 6.0207,6.02015 10.9464,16.76759 10.9464,23.88277 0,7.11517 -4.9257,17.86261 -10.9464,23.88276 -9.352,9.35205 -35.6583,10.94639 -180.61391,10.94639 -144.95559,0 -171.26191,-1.59434 -180.61396,-10.94639 z M 251.11028,410.72246 c -23.0335,-4.3216 -43.6752,-34.67367 -43.6752,-64.22105 0,-14.042 -3.78384,-29.31445 -8.4086,-33.9392 -6.56794,-6.56794 -5.81619,-11.00155 3.43276,-20.25106 8.98593,-8.98537 13.79179,-9.89204 19.92507,-3.75876 5.79222,5.79222 11.95447,6.01011 21.74676,0.76958 7.51585,-4.02235 23.49212,-5.73761 35.50345,-3.8117 19.31039,3.09617 25.52001,-0.59683 53.62574,-31.88846 19.56284,-21.78076 34.96513,-33.42484 40.05353,-30.28019 14.59091,9.01769 8.93465,26.97894 -18.8852,59.9719 -21.0747,24.9934 -26.35592,36.36944 -23.59299,50.82215 9.39328,49.13975 -29.07148,86.09097 -79.72532,76.58679 z m 53.57503,-31.15899 c 14.75252,-15.83473 19.25635,-40.48151 7.39772,-40.48151 -3.74261,0 -11.94,7.83684 -18.21537,17.41458 -14.64664,22.35307 -28.63124,22.00868 -52.96372,-1.30345 -19.03288,-18.23431 -19.5372,-18.32403 -19.5372,-3.48291 0,38.45138 56.00304,57.17331 83.31857,27.85329 z m -22.20316,-76.43244 c -11.2122,-7.11629 -13.59173,-7.05165 -25.83822,0.6977 -8.35955,5.28957 -8.48159,8.15894 -0.74283,17.48368 8.47045,10.20578 10.37295,10.14615 22.35585,-0.6977 10.08262,-9.12524 11.05505,-13.14926 4.2252,-17.48368 z m 142.84355,77.60604 c -21.43972,-8.62704 -27.91961,-38.43578 -12.14451,-55.86763 11.62068,-12.84053 22.3553,-13.6508 180.85748,-13.6508 157.24161,0 169.31151,0.89274 180.59171,13.35712 16.1763,17.87488 11.4919,43.48406 -9.9289,54.28277 -20.5843,10.37686 -314.21688,12.00184 -339.37578,1.87854 z"
   id="path4196"
   inkscape:connector-curvature="0" /></svg>