<?xml version="1.0" encoding="UTF-8" standalone="no"?>
<!-- Generator: Adobe Illustrator 16.0.0, SVG Export Plug-In . SVG Version: 6.00 Build 0)  -->

<svg
   xmlns:dc="http://purl.org/dc/elements/1.1/"
   xmlns:cc="http://creativecommons.org/ns#"
   xmlns:rdf="http://www.w3.org/1999/02/22-rdf-syntax-ns#"
   xmlns:svg="http://www.w3.org/2000/svg"
   xmlns="http://www.w3.org/2000/svg"
   xmlns:sodipodi="http://sodipodi.sourceforge.net/DTD/sodipodi-0.dtd"
   xmlns:inkscape="http://www.inkscape.org/namespaces/inkscape"
   version="1.1"
   id="Layer_1"
   x="0px"
   y="0px"
   width="1000"
   height="1000"
   viewBox="0 0 999.9999 999.99998"
   enable-background="new 0 0 595.28 841.89"
   xml:space="preserve"
   inkscape:version="0.91 r13725"
   sodipodi:docname="photo_details.svg"><metadata
   id="metadata9"><rdf:RDF><cc:Work
       rdf:about=""><dc:format>image/svg+xml</dc:format><dc:type
         rdf:resource="http://purl.org/dc/dcmitype/StillImage" /><dc:title></dc:title></cc:Work></rdf:RDF></metadata><defs
   id="defs7" /><sodipodi:namedview
   pagecolor="#ffffff"
   bordercolor="#666666"
   borderopacity="1"
   objecttolerance="10"
   gridtolerance="10"
   guidetolerance="10"
   inkscape:pageopacity="0"
   inkscape:pageshadow="2"
   inkscape:window-width="1360"
   inkscape:window-height="715"
   id="namedview5"
   showgrid="false"
   inkscape:zoom="0.1767767"
   inkscape:cx="-609.71263"
   inkscape:cy="409.72817"
   inkscape:window-x="-8"
   inkscape:window-y="-8"
   inkscape:window-maximized="1"
   inkscape:current-layer="Layer_1" />

<path
   style="fill:#000000"
   d="M 157.03068,945.26818 C 120.78574,934.10898 88.816764,908.93837 69.798324,876.58605 l -19.0944,-32.48145 0,-344.80857 0,-344.80858 19.34116,-32.90257 C 82.587144,100.24877 100.95269,81.883217 122.28886,69.341157 l 32.90251,-19.34116 344.80857,0 344.80861,0 32.9025,19.34116 c 21.3362,12.54206 39.7017,30.907613 52.2438,52.243723 l 19.3411,32.90257 0,344.80858 0,344.80857 -19.3411,32.90252 c -12.5421,21.33617 -30.9076,39.70171 -52.2438,52.24372 l -32.9025,19.34121 -334.35986,1.27191 c -183.89791,0.69953 -342.936,-1.36859 -353.41801,-4.59578 z m 697.69077,-91.25064 21.4333,-21.43336 0,-333.28815 0,-333.28816 -21.4333,-21.43335 -21.4334,-21.43331 -333.28811,0 -333.28815,0 -21.4333,21.43331 -21.43336,21.43335 0,333.28816 0,333.28815 21.43336,21.43336 21.4333,21.4333 333.28815,0 333.28811,0 21.4334,-21.4333 z M 225.10372,673.72241 c -16.52629,-18.26128 -9.12122,-47.33916 14.32565,-56.25364 27.93654,-10.62144 503.77988,-8.56976 525.27208,2.26484 21.421,10.79865 26.1052,36.40805 9.929,54.28265 -11.5075,12.71559 -24.6983,13.35717 -274.63051,13.35717 -251.89633,0 -263.04322,-0.55392 -274.89622,-13.65102 z m 0.24353,-150.54356 c -6.02048,-6.02043 -10.94633,-16.7677 -10.94633,-23.88282 0,-7.11512 4.92585,-17.8624 10.94633,-23.88282 9.56564,-9.5657 44.20738,-10.94633 274.65269,-10.94633 230.44541,0 265.08711,1.38063 274.65271,10.94633 6.0205,6.02042 10.9463,16.7677 10.9463,23.88282 0,7.11512 -4.9258,17.86239 -10.9463,23.88282 -9.5656,9.5657 -44.2073,10.94633 -274.65271,10.94633 -230.44531,0 -265.08705,-1.38063 -274.65269,-10.94633 z m 11.90104,-142.44192 c -21.43994,-8.62704 -27.91989,-38.43583 -12.14457,-55.86734 11.853,-13.09744 22.99989,-13.65097 274.89622,-13.65097 249.93221,0 263.12301,0.64153 274.63051,13.35723 16.1762,17.8746 11.492,43.48394 -9.929,54.28254 -20.719,10.44484 -501.90523,12.15861 -527.45316,1.87854 z"
   id="path4183"
   inkscape:connector-curvature="0" /></svg>