<?xml version="1.0" encoding="UTF-8" standalone="no"?>
<!-- Created with Inkscape (http://www.inkscape.org/) -->

<svg
   xmlns:dc="http://purl.org/dc/elements/1.1/"
   xmlns:cc="http://creativecommons.org/ns#"
   xmlns:rdf="http://www.w3.org/1999/02/22-rdf-syntax-ns#"
   xmlns:svg="http://www.w3.org/2000/svg"
   xmlns="http://www.w3.org/2000/svg"
   xmlns:sodipodi="http://sodipodi.sourceforge.net/DTD/sodipodi-0.dtd"
   xmlns:inkscape="http://www.inkscape.org/namespaces/inkscape"
   width="348"
   height="92"
   viewBox="0 0 348 92.000002"
   id="svg5734"
   version="1.1"
   inkscape:version="0.91 r13725"
   sodipodi:docname="logo-top.svg">
  <defs
     id="defs5736">
    <linearGradient
       x1="0"
       y1="0"
       x2="1"
       y2="0"
       gradientUnits="userSpaceOnUse"
       gradientTransform="matrix(99.666092,0,0,-99.666092,503.19836,685.16229)"
       spreadMethod="pad"
       id="linearGradient856">
      <stop
         style="stop-opacity:1;stop-color:#5dbbe0"
         offset="0"
         id="stop858" />
      <stop
         style="stop-opacity:1;stop-color:#5dbbe0"
         offset="0.00027639"
         id="stop860" />
      <stop
         style="stop-opacity:1;stop-color:#dbaf85"
         offset="1"
         id="stop862" />
    </linearGradient>
  </defs>
  <sodipodi:namedview
     id="base"
     pagecolor="#ffffff"
     bordercolor="#666666"
     borderopacity="1.0"
     inkscape:pageopacity="0.0"
     inkscape:pageshadow="2"
     inkscape:zoom="0.98994949"
     inkscape:cx="88.120278"
     inkscape:cy="55.969444"
     inkscape:document-units="px"
     inkscape:current-layer="layer1"
     showgrid="false"
     units="px"
     inkscape:window-width="1360"
     inkscape:window-height="715"
     inkscape:window-x="-8"
     inkscape:window-y="-8"
     inkscape:window-maximized="1" />
  <metadata
     id="metadata5739">
    <rdf:RDF>
      <cc:Work
         rdf:about="">
        <dc:format>image/svg+xml</dc:format>
        <dc:type
           rdf:resource="http://purl.org/dc/dcmitype/StillImage" />
        <dc:title></dc:title>
      </cc:Work>
    </rdf:RDF>
  </metadata>
  <g
     inkscape:label="Camada 1"
     inkscape:groupmode="layer"
     id="layer1"
     transform="translate(0,-960.36216)">
    <g
       id="g5569"
       transform="matrix(1.2726784,0,0,-1.2726784,-639.66371,1878.3537)">
      <g
         id="g844">
        <g
           id="g846">
          <g
             id="g852">
            <g
               id="g854">
              <path
                 inkscape:connector-curvature="0"
                 id="path864"
                 style="fill:url(#linearGradient856);stroke:none"
                 d="m 552.168,719.338 0,-5.948 0,-1.062 0,-0.296 c 0,-0.547 0.374,-1.002 0.877,-1.137 l 0,0 c 0.108,-0.054 0.218,-0.101 0.338,-0.13 l 0,0 c 2.562,-0.621 4.386,-3.158 3.858,-6.002 l 0,0 c -0.033,-0.181 -0.08,-0.356 -0.132,-0.53 l 0,0 -7.346,0 c 0.679,-1.209 1.83,-2.127 3.23,-2.481 l 0,0 2.455,0 c -0.655,-0.54 -1.44,-0.922 -2.298,-1.08 l 0,0 c -2.753,-0.511 -5.218,1.18 -5.936,3.612 l 0,0 c -0.252,0.852 -0.997,1.461 -1.884,1.461 l 0,0 -0.808,0 c 0,-0.514 0.056,-1.02 0.153,-1.512 l 0,0 -39.063,0 c -1.331,0 -2.414,-1.083 -2.414,-2.414 l 0,0 0,-49.602 c 0,-1.331 1.083,-2.413 2.414,-2.413 l 0,0 94.839,0 c 1.33,0 2.413,1.082 2.413,2.413 l 0,0 0,49.602 c 0,1.331 -1.083,2.414 -2.413,2.414 l 0,0 -40.791,0 c 0.099,0.489 0.153,0.994 0.153,1.512 l 0,0 c 0,3.389 -2.218,6.267 -5.279,7.266 l 0,0 0,6.327 c 0,0.653 -0.529,1.183 -1.182,1.183 l 0,0 c -0.655,0 -1.184,-0.53 -1.184,-1.183 m 35.523,-60.287 c 0.438,0.437 0.679,1.02 0.679,1.639 l 0,0 c 0,0.62 -0.241,1.202 -0.679,1.64 l 0,0 c -0.193,0.192 -0.414,0.335 -0.647,0.446 l 0,0 0,38.976 13.34,0 0,-49.467 -20.042,0 0,28.804 c 0.233,0.111 0.455,0.254 0.648,0.447 l 0,0 c 0.903,0.903 0.903,2.375 0,3.279 l 0,0 c -0.905,0.903 -2.375,0.903 -3.28,0 l 0,0 c -0.438,-0.438 -0.68,-1.02 -0.68,-1.64 l 0,0 c 0,-0.62 0.242,-1.202 0.68,-1.639 l 0,0 c 0.193,-0.193 0.414,-0.336 0.647,-0.447 l 0,0 0,-28.804 -23.871,0 0,19.571 c 0.233,0.111 0.456,0.254 0.648,0.447 l 0,0 c 0.904,0.903 0.904,2.375 0,3.278 l 0,0 c -0.904,0.904 -2.375,0.905 -3.279,0 l 0,0 c -0.438,-0.437 -0.68,-1.019 -0.68,-1.639 l 0,0 c 0,-0.62 0.242,-1.202 0.68,-1.639 l 0,0 c 0.192,-0.193 0.414,-0.336 0.647,-0.447 l 0,0 0,-19.571 -3.721,0 0,28.467 c 0.236,0.112 0.457,0.257 0.647,0.447 l 0,0 c 0.438,0.439 0.68,1.021 0.68,1.64 l 0,0 c 0,0.619 -0.242,1.201 -0.68,1.64 l 0,0 -10e-4,0 c -0.437,0.438 -1.019,0.679 -1.638,0.679 l 0,0 c -0.62,0 -1.202,-0.241 -1.64,-0.679 l 0,0 c -0.438,-0.438 -0.68,-1.021 -0.68,-1.64 l 0,0 c 0,-0.619 0.242,-1.201 0.68,-1.64 l 0,0 c 0.191,-0.19 0.411,-0.335 0.647,-0.447 l 0,0 0,-28.467 -25.611,0 0,32.899 c 0.234,0.111 0.455,0.254 0.648,0.446 l 0,0 c 0.437,0.438 0.679,1.021 0.679,1.64 l 0,0 c 0,0.619 -0.242,1.202 -0.679,1.639 l 0,0 c -0.904,0.904 -2.376,0.905 -3.28,0 l 0,0 c -0.437,-0.437 -0.68,-1.02 -0.68,-1.639 l 0,0 c 0,-0.619 0.243,-1.202 0.68,-1.639 l 0,0 c 0.193,-0.193 0.414,-0.336 0.647,-0.447 l 0,0 0,-32.899 -13.521,0 0,49.467 25.849,0 0,-35.612 c -0.232,-0.11 -0.454,-0.252 -0.646,-0.445 l 0,0 c -0.904,-0.905 -0.904,-2.375 0,-3.28 l 0,0 c 0.452,-0.451 1.046,-0.677 1.639,-0.677 l 0,0 c 0.594,0 1.188,0.226 1.64,0.677 l 0,0 c 0.904,0.905 0.904,2.375 0,3.28 l 0,0 c -0.193,0.193 -0.414,0.335 -0.647,0.445 l 0,0 0,35.612 12.106,0 c 0.91,-1.525 2.338,-2.719 4.105,-3.272 l 0,0 c 3.715,-1.163 7.223,0.453 8.957,3.272 l 0,0 26.376,0 0,-38.977 c -0.232,-0.11 -0.453,-0.253 -0.646,-0.445 l 0,0 c -0.438,-0.438 -0.679,-1.02 -0.679,-1.64 l 0,0 c 0,-0.619 0.241,-1.202 0.679,-1.639 l 0,0 c 0.452,-0.453 1.046,-0.679 1.64,-0.679 l 0,0 c 0.593,0 1.187,0.226 1.639,0.679" />
            </g>
          </g>
        </g>
      </g>
      <g
         transform="translate(619.3395,696.7137)"
         id="g874">
        <path
           inkscape:connector-curvature="0"
           id="path876"
           style="fill:#adafae;fill-opacity:1;fill-rule:nonzero;stroke:none"
           d="m 0,0 0,-9.047 3.321,0 c 0.344,0 0.611,-0.267 0.611,-0.611 l 0,-1.221 c 0,-0.306 -0.267,-0.611 -0.611,-0.611 l -3.321,0 0,-10.841 c 0,-0.344 -0.267,-0.611 -0.611,-0.611 l -1.221,0 c -0.344,0 -0.611,0.267 -0.611,0.611 l 0,23.553 c 0,0.648 0.573,1.221 1.222,1.221 l 4.542,0 c 0.344,0 0.611,-0.305 0.611,-0.611 l 0,-1.221 C 3.932,0.267 3.665,0 3.321,0 L 0,0 Z" />
      </g>
      <g
         transform="translate(647.612,698.546)"
         id="g878">
        <path
           inkscape:connector-curvature="0"
           id="path880"
           style="fill:#adafae;fill-opacity:1;fill-rule:nonzero;stroke:none"
           d="m 0,0 0,-1.222 c 0,-0.343 -0.267,-0.61 -0.611,-0.61 l -1.717,0 0,-22.332 c 0,-0.343 -0.268,-0.61 -0.611,-0.61 l -1.222,0 c -0.343,0 -0.611,0.267 -0.611,0.61 l 0,22.332 -1.717,0 c -0.344,0 -0.611,0.267 -0.611,0.61 L -7.1,0 c 0,0.305 0.267,0.611 0.611,0.611 l 5.878,0 C -0.267,0.611 0,0.305 0,0" />
      </g>
      <g
         transform="translate(657.05,694.8463)"
         id="g882">
        <path
           inkscape:connector-curvature="0"
           id="path884"
           style="fill:#adafae;fill-opacity:1;fill-rule:nonzero;stroke:none"
           d="M 0,0 C 0,1.107 -0.878,1.985 -1.947,1.985 -3.054,1.985 -3.932,1.107 -3.932,0 l 0,-16.567 c 0,-1.069 0.878,-1.947 1.985,-1.947 1.069,0 1.947,0.878 1.947,1.947 L 0,0 Z m 2.443,0 0,-16.567 c 0,-2.443 -1.985,-4.39 -4.39,-4.39 -2.443,0 -4.428,1.947 -4.428,4.39 l 0,16.567 c 0,2.443 1.985,4.428 4.428,4.428 2.405,0 4.39,-1.985 4.39,-4.428" />
      </g>
      <g
         transform="translate(634.4486,694.8463)"
         id="g886">
        <path
           inkscape:connector-curvature="0"
           id="path888"
           style="fill:#adafae;fill-opacity:1;fill-rule:nonzero;stroke:none"
           d="M 0,0 C 0,1.107 -0.878,1.985 -1.947,1.985 -3.054,1.985 -3.932,1.107 -3.932,0 l 0,-16.567 c 0,-1.069 0.878,-1.947 1.985,-1.947 1.069,0 1.947,0.878 1.947,1.947 L 0,0 Z m 2.443,0 0,-16.567 c 0,-2.443 -1.985,-4.39 -4.39,-4.39 -2.443,0 -4.428,1.947 -4.428,4.39 l 0,16.567 c 0,2.443 1.985,4.428 4.428,4.428 2.405,0 4.39,-1.985 4.39,-4.428" />
      </g>
      <g
         transform="translate(717.7484,698.6342)"
         id="g890">
        <path
           inkscape:connector-curvature="0"
           id="path892"
           style="fill:#adafae;fill-opacity:1;fill-rule:nonzero;stroke:none"
           d="m 0,0 0,-1.222 c 0,-0.343 -0.267,-0.61 -0.611,-0.61 l -1.718,0 0,-22.332 c 0,-0.343 -0.267,-0.61 -0.61,-0.61 l -1.222,0 c -0.343,0 -0.611,0.267 -0.611,0.61 l 0,22.332 -1.717,0 c -0.344,0 -0.611,0.267 -0.611,0.61 L -7.1,0 c 0,0.305 0.267,0.611 0.611,0.611 l 5.878,0 C -0.267,0.611 0,0.305 0,0" />
      </g>
      <g
         transform="translate(677.9973,693.557)"
         id="g894">
        <path
           inkscape:connector-curvature="0"
           id="path896"
           style="fill:#adafae;fill-opacity:1;fill-rule:nonzero;stroke:none"
           d="m 0,0 0,1.298 c 0,1.069 -0.878,1.947 -1.947,1.947 -1.069,0 -1.947,-0.878 -1.947,-1.947 l 0,-16.605 c 0,-1.069 0.878,-1.947 1.947,-1.947 1.069,0 1.947,0.878 1.947,1.947 l 0,1.412 c 0,0.343 0.267,0.611 0.611,0.611 l 1.221,0 c 0.344,0 0.611,-0.268 0.611,-0.611 l 0,-1.412 c 0,-2.405 -1.985,-4.39 -4.39,-4.39 -2.443,0 -4.39,1.985 -4.39,4.39 l 0,16.605 c 0,2.405 1.947,4.39 4.39,4.39 2.405,0 4.39,-1.985 4.39,-4.39 L 2.443,0 c 0,-0.344 -0.267,-0.611 -0.611,-0.611 l -1.221,0 C 0.267,-0.611 0,-0.344 0,0" />
      </g>
      <g
         transform="translate(691.6177,694.8169)"
         id="g898">
        <path
           inkscape:connector-curvature="0"
           id="path900"
           style="fill:#adafae;fill-opacity:1;fill-rule:nonzero;stroke:none"
           d="M 0,0 C 0,1.107 -0.878,1.985 -1.947,1.985 -3.054,1.985 -3.932,1.107 -3.932,0 l 0,-16.567 c 0,-1.069 0.878,-1.947 1.985,-1.947 1.069,0 1.947,0.878 1.947,1.947 L 0,0 Z m 2.443,0 0,-16.567 c 0,-2.443 -1.985,-4.39 -4.39,-4.39 -2.443,0 -4.428,1.947 -4.428,4.39 l 0,16.567 c 0,2.443 1.985,4.428 4.428,4.428 2.405,0 4.39,-1.985 4.39,-4.428" />
      </g>
      <g
         transform="translate(707.6489,694.8463)"
         id="g902">
        <path
           inkscape:connector-curvature="0"
           id="path904"
           style="fill:#adafae;fill-opacity:1;fill-rule:nonzero;stroke:none"
           d="m 0,0 0,-20.346 c 0,-0.344 -0.267,-0.611 -0.611,-0.611 l -1.221,0 c -0.344,0 -0.611,0.267 -0.611,0.611 l 0,20.346 c 0,1.107 -0.878,1.985 -1.947,1.985 -1.107,0 -1.985,-0.878 -1.985,-1.985 l 0,-20.346 c 0,-0.344 -0.267,-0.611 -0.611,-0.611 l -1.221,0 c -0.344,0 -0.611,0.267 -0.611,0.611 l 0,20.346 c 0,2.443 1.985,4.428 4.428,4.428 C -1.985,4.428 0,2.443 0,0" />
      </g>
      <g
         transform="translate(750.4437,694.8169)"
         id="g906">
        <path
           inkscape:connector-curvature="0"
           id="path908"
           style="fill:#adafae;fill-opacity:1;fill-rule:nonzero;stroke:none"
           d="m 0,0 0,-20.346 c 0,-0.344 -0.267,-0.611 -0.611,-0.611 l -1.221,0 c -0.344,0 -0.611,0.267 -0.611,0.611 l 0,20.346 c 0,1.107 -0.878,1.985 -1.947,1.985 -1.107,0 -1.985,-0.878 -1.985,-1.985 l 0,-20.346 c 0,-0.344 -0.267,-0.611 -0.611,-0.611 l -1.221,0 c -0.344,0 -0.611,0.267 -0.611,0.611 l 0,20.346 c 0,2.443 1.985,4.428 4.428,4.428 C -1.985,4.428 0,2.443 0,0" />
      </g>
      <g
         transform="translate(757.7767,696.7431)"
         id="g910">
        <path
           inkscape:connector-curvature="0"
           id="path912"
           style="fill:#adafae;fill-opacity:1;fill-rule:nonzero;stroke:none"
           d="m 0,0 0,-9.047 3.321,0 c 0.344,0 0.611,-0.267 0.611,-0.611 l 0,-1.221 c 0,-0.306 -0.267,-0.611 -0.611,-0.611 l -3.321,0 0,-9.009 3.321,0 c 0.344,0 0.611,-0.305 0.611,-0.611 l 0,-1.221 c 0,-0.344 -0.267,-0.611 -0.611,-0.611 l -4.543,0 c -0.687,0 -1.221,0.534 -1.221,1.221 l 0,22.942 c 0,0.649 0.534,1.222 1.221,1.222 l 4.543,0 c 0.344,0 0.611,-0.305 0.611,-0.611 l 0,-1.221 C 3.932,0.267 3.665,0 3.321,0 L 0,0 Z" />
      </g>
      <g
         transform="translate(773.0225,694.7581)"
         id="g914">
        <path
           inkscape:connector-curvature="0"
           id="path916"
           style="fill:#adafae;fill-opacity:1;fill-rule:nonzero;stroke:none"
           d="m 0,0 c 0,1.107 -0.878,1.985 -1.947,1.985 l -1.947,0 0,-9.009 1.947,0 C -0.878,-7.024 0,-6.146 0,-5.077 L 0,0 Z m 2.443,-5.077 c 0,-1.26 -0.496,-2.367 -1.336,-3.168 0.84,-0.802 1.336,-1.947 1.336,-3.207 l 0,-8.894 c 0,-0.344 -0.267,-0.611 -0.611,-0.611 l -1.221,0 C 0.267,-20.957 0,-20.69 0,-20.346 l 0,8.894 c 0,1.107 -0.878,1.985 -1.947,1.985 l -1.947,0 0,-10.879 c 0,-0.344 -0.305,-0.611 -0.61,-0.611 l -1.222,0 c -0.344,0 -0.611,0.267 -0.611,0.611 l 0,23.552 c 0,0.649 0.535,1.222 1.222,1.222 l 3.168,0 c 2.443,0 4.39,-1.985 4.39,-4.428 l 0,-5.077 z" />
      </g>
      <g
         transform="translate(727.0099,694.8169)"
         id="g918">
        <path
           inkscape:connector-curvature="0"
           id="path920"
           style="fill:#adafae;fill-opacity:1;fill-rule:nonzero;stroke:none"
           d="M 0,0 C 0,1.107 -0.878,1.985 -1.947,1.985 -3.054,1.985 -3.932,1.107 -3.932,0 l 0,-7.024 3.932,0 L 0,0 Z m 2.443,0 0,-20.346 c 0,-0.344 -0.267,-0.611 -0.611,-0.611 l -1.221,0 C 0.267,-20.957 0,-20.69 0,-20.346 l 0,10.879 -3.932,0 0,-10.879 c 0,-0.344 -0.267,-0.611 -0.611,-0.611 l -1.221,0 c -0.306,0 -0.611,0.267 -0.611,0.611 l 0,20.346 c 0,2.443 1.985,4.428 4.428,4.428 2.405,0 4.39,-1.985 4.39,-4.428" />
      </g>
      <g
         transform="translate(736.7358,674.4705)"
         id="g922">
        <path
           inkscape:connector-curvature="0"
           id="path924"
           style="fill:#adafae;fill-opacity:1;fill-rule:nonzero;stroke:none"
           d="m 0,0 c 0,-0.344 -0.267,-0.611 -0.611,-0.611 l -1.221,0 c -0.344,0 -0.611,0.267 -0.611,0.611 l 0,24.126 0,0.038 c 0,0.305 0.267,0.61 0.611,0.61 l 1.221,0 C -0.267,24.774 0,24.469 0,24.164 L 0,0 Z" />
      </g>
      <g
         transform="translate(697.4637,664.6062)"
         id="g926">
        <path
           inkscape:connector-curvature="0"
           id="path928"
           style="fill:#adafae;fill-opacity:1;fill-rule:nonzero;stroke:none"
           d="M 0,0 -0.587,0 -1.168,0 -1.425,0 C -1.529,0 -1.61,-0.081 -1.61,-0.186 l 0,-0.37 c 0,-0.093 0.081,-0.185 0.185,-0.185 l 0.797,0 0.581,0 0.047,0 c 0.104,0 0.185,0.081 0.185,0.186 l 0,0.37 C 0.185,-0.092 0.104,0 0,0" />
      </g>
      <g
         transform="translate(675.7169,661.5934)"
         id="g930">
        <path
           inkscape:connector-curvature="0"
           id="path932"
           style="fill:#adafae;fill-opacity:1;fill-rule:nonzero;stroke:none"
           d="m 0,0 0,0.387 c 0,0.319 -0.262,0.582 -0.581,0.582 -0.319,0 -0.582,-0.263 -0.582,-0.582 l 0,-4.957 c 0,-0.319 0.263,-0.581 0.582,-0.581 0.319,0 0.581,0.262 0.581,0.581 l 0,0.422 c 0,0.102 0.08,0.182 0.182,0.182 l 0.365,0 c 0.102,0 0.182,-0.08 0.182,-0.182 l 0,-0.422 c 0,-0.718 -0.592,-1.311 -1.31,-1.311 -0.73,0 -1.311,0.593 -1.311,1.311 l 0,4.957 c 0,0.718 0.581,1.311 1.311,1.311 0.718,0 1.31,-0.593 1.31,-1.311 L 0.729,0 c 0,-0.103 -0.08,-0.182 -0.182,-0.182 l -0.365,0 C 0.08,-0.182 0,-0.103 0,0" />
      </g>
      <g
         transform="translate(680.0922,661.9694)"
         id="g934">
        <path
           inkscape:connector-curvature="0"
           id="path936"
           style="fill:#adafae;fill-opacity:1;fill-rule:nonzero;stroke:none"
           d="M 0,0 C 0,0.33 -0.262,0.593 -0.581,0.593 -0.912,0.593 -1.174,0.33 -1.174,0 l 0,-4.946 c 0,-0.319 0.262,-0.581 0.593,-0.581 0.319,0 0.581,0.262 0.581,0.581 L 0,0 Z m 0.729,0 0,-4.946 c 0,-0.729 -0.592,-1.311 -1.31,-1.311 -0.73,0 -1.322,0.582 -1.322,1.311 l 0,4.946 c 0,0.729 0.592,1.322 1.322,1.322 0.718,0 1.31,-0.593 1.31,-1.322" />
      </g>
      <g
         transform="translate(685.3112,661.9694)"
         id="g938">
        <path
           inkscape:connector-curvature="0"
           id="path940"
           style="fill:#adafae;fill-opacity:1;fill-rule:nonzero;stroke:none"
           d="m 0,0 0,-6.074 c 0,-0.103 -0.08,-0.183 -0.182,-0.183 l -0.365,0 c -0.103,0 -0.182,0.08 -0.182,0.183 l 0,6.074 c 0,0.33 -0.263,0.593 -0.582,0.593 -0.33,0 -0.592,-0.263 -0.592,-0.593 l 0,-6.074 c 0,-0.103 -0.08,-0.183 -0.183,-0.183 l -0.364,0 c -0.103,0 -0.183,0.08 -0.183,0.183 l 0,6.074 c 0,0.729 0.593,1.322 1.322,1.322 C -0.593,1.322 0,0.729 0,0" />
      </g>
      <g
         transform="translate(687.8975,662.5621)"
         id="g942">
        <path
           inkscape:connector-curvature="0"
           id="path944"
           style="fill:#adafae;fill-opacity:1;fill-rule:nonzero;stroke:none"
           d="m 0,0 0,-2.701 0.992,0 c 0.102,0 0.182,-0.08 0.182,-0.182 l 0,-0.365 c 0,-0.091 -0.08,-0.182 -0.182,-0.182 l -0.992,0 0,-2.69 0.992,0 c 0.102,0 0.182,-0.091 0.182,-0.182 l 0,-0.365 c 0,-0.103 -0.08,-0.182 -0.182,-0.182 l -1.357,0 c -0.205,0 -0.364,0.159 -0.364,0.364 l 0,6.85 c 0,0.193 0.159,0.364 0.364,0.364 l 1.357,0 c 0.102,0 0.182,-0.091 0.182,-0.182 l 0,-0.365 C 1.174,0.08 1.094,0 0.992,0 L 0,0 Z" />
      </g>
      <g
         transform="translate(693.3331,660.6587)"
         id="g946">
        <path
           inkscape:connector-curvature="0"
           id="path948"
           style="fill:#adafae;fill-opacity:1;fill-rule:nonzero;stroke:none"
           d="M 0,0 -0.661,-1.174 0,-2.359 c 0.148,-0.217 0.228,-0.467 0.228,-0.729 l 0,-1.676 c 0,-0.102 -0.08,-0.182 -0.182,-0.182 l -0.365,0 c -0.103,0 -0.182,0.08 -0.182,0.182 l 0,1.676 c 0,0.068 -0.012,0.125 -0.035,0.182 l -0.558,0.98 -0.547,-0.98 C -1.664,-2.963 -1.675,-3.02 -1.675,-3.088 l 0,-1.676 c 0,-0.102 -0.08,-0.182 -0.183,-0.182 l -0.364,0 c -0.103,0 -0.183,0.08 -0.183,0.182 l 0,1.676 c 0,0.262 0.08,0.512 0.228,0.729 L -1.516,-1.174 -2.177,0 c -0.148,0.217 -0.228,0.467 -0.228,0.729 l 0,1.721 c 0,0.091 0.08,0.183 0.183,0.183 l 0.364,0 c 0.103,0 0.183,-0.092 0.183,-0.183 l 0,-1.721 c 0,-0.068 0.011,-0.125 0.034,-0.182 l 0.547,-0.98 0.558,0.98 c 0.023,0.057 0.035,0.114 0.035,0.182 l 0,1.721 c 0,0.091 0.079,0.183 0.182,0.183 l 0.365,0 c 0.102,0 0.182,-0.092 0.182,-0.183 l 0,-1.721 C 0.228,0.467 0.148,0.217 0,0" />
      </g>
      <g
         transform="translate(697.3383,661.9694)"
         id="g950">
        <path
           inkscape:connector-curvature="0"
           id="path952"
           style="fill:#adafae;fill-opacity:1;fill-rule:nonzero;stroke:none"
           d="M 0,0 C 0,0.33 -0.262,0.593 -0.581,0.593 -0.912,0.593 -1.174,0.33 -1.174,0 l 0,-4.946 c 0,-0.319 0.262,-0.581 0.593,-0.581 0.319,0 0.581,0.262 0.581,0.581 L 0,0 Z m 0.729,0 0,-4.946 c 0,-0.729 -0.592,-1.311 -1.31,-1.311 -0.73,0 -1.322,0.582 -1.322,1.311 l 0,4.946 c 0,0.729 0.592,1.322 1.322,1.322 0.718,0 1.31,-0.593 1.31,-1.322" />
      </g>
      <g
         transform="translate(700.6367,662.5621)"
         id="g954">
        <path
           inkscape:connector-curvature="0"
           id="path956"
           style="fill:#adafae;fill-opacity:1;fill-rule:nonzero;stroke:none"
           d="m 0,0 0,-2.701 0.992,0 c 0.102,0 0.182,-0.08 0.182,-0.182 l 0,-0.365 c 0,-0.091 -0.08,-0.182 -0.182,-0.182 l -0.992,0 0,-2.69 0.992,0 c 0.102,0 0.182,-0.091 0.182,-0.182 l 0,-0.365 c 0,-0.103 -0.08,-0.182 -0.182,-0.182 l -1.357,0 c -0.205,0 -0.364,0.159 -0.364,0.364 l 0,6.85 c 0,0.193 0.159,0.364 0.364,0.364 l 1.357,0 c 0.102,0 0.182,-0.091 0.182,-0.182 l 0,-0.365 C 1.174,0.08 1.094,0 0.992,0 L 0,0 Z" />
      </g>
      <g
         transform="translate(705.1036,661.5934)"
         id="g958">
        <path
           inkscape:connector-curvature="0"
           id="path960"
           style="fill:#adafae;fill-opacity:1;fill-rule:nonzero;stroke:none"
           d="m 0,0 0,0.387 c 0,0.319 -0.262,0.582 -0.581,0.582 -0.319,0 -0.581,-0.263 -0.581,-0.582 l 0,-0.581 c 0,-0.137 0,-0.137 0.034,-0.194 L 0.513,-3.282 C 0.729,-3.67 0.729,-3.67 0.729,-4 l 0,-0.57 c 0,-0.729 -0.592,-1.311 -1.31,-1.311 -0.718,0 -1.311,0.582 -1.311,1.311 l 0,0.387 c 0,0.091 0.08,0.183 0.183,0.183 l 0.364,0 c 0.103,0 0.183,-0.092 0.183,-0.183 l 0,-0.387 c 0,-0.331 0.262,-0.593 0.581,-0.593 0.319,0 0.581,0.262 0.581,0.593 L 0,-4 c 0,0.125 0,0.125 -0.034,0.182 l -1.641,2.895 c -0.217,0.387 -0.217,0.387 -0.217,0.729 l 0,0.581 c 0,0.718 0.593,1.311 1.311,1.311 0.718,0 1.31,-0.593 1.31,-1.311 L 0.729,0 c 0,-0.103 -0.08,-0.182 -0.182,-0.182 l -0.365,0 C 0.08,-0.182 0,-0.103 0,0" />
      </g>
      <g
         transform="translate(712.0204,661.9581)"
         id="g962">
        <path
           inkscape:connector-curvature="0"
           id="path964"
           style="fill:#adafae;fill-opacity:1;fill-rule:nonzero;stroke:none"
           d="M 0,0 C 0,0.33 -0.262,0.593 -0.581,0.593 -0.9,0.593 -1.163,0.33 -1.163,0 l 0,-4.935 c 0,-0.319 0.263,-0.581 0.582,-0.581 0.319,0 0.581,0.262 0.581,0.581 L 0,0 Z m 0.729,0 0,-4.935 c 0,-0.592 -0.399,-1.094 -0.946,-1.253 l 0,-0.604 c 0,-0.092 -0.079,-0.171 -0.182,-0.171 l -0.365,0 c -0.102,0 -0.182,0.079 -0.182,0.171 l 0,0.604 c -0.547,0.159 -0.946,0.661 -0.946,1.253 l 0,4.935 c 0,0.729 0.593,1.31 1.311,1.31 0.718,0 1.31,-0.581 1.31,-1.31" />
      </g>
      <g
         transform="translate(717.2505,663.1091)"
         id="g966">
        <path
           inkscape:connector-curvature="0"
           id="path968"
           style="fill:#adafae;fill-opacity:1;fill-rule:nonzero;stroke:none"
           d="m 0,0 0,-6.086 c 0,-0.729 -0.593,-1.31 -1.311,-1.31 -0.729,0 -1.322,0.581 -1.322,1.31 l 0,6.086 c 0,0.091 0.092,0.182 0.183,0.182 l 0.364,0 c 0.103,0 0.183,-0.091 0.183,-0.182 l 0,-6.086 c 0,-0.319 0.262,-0.581 0.592,-0.581 0.319,0 0.582,0.262 0.582,0.581 l 0,6.086 c 0,0.091 0.079,0.182 0.182,0.182 l 0.365,0 C -0.08,0.182 0,0.091 0,0" />
      </g>
      <g
         transform="translate(719.8367,662.5621)"
         id="g970">
        <path
           inkscape:connector-curvature="0"
           id="path972"
           style="fill:#adafae;fill-opacity:1;fill-rule:nonzero;stroke:none"
           d="m 0,0 0,-2.701 0.991,0 c 0.103,0 0.183,-0.08 0.183,-0.182 l 0,-0.365 c 0,-0.091 -0.08,-0.182 -0.183,-0.182 l -0.991,0 0,-2.69 0.991,0 c 0.103,0 0.183,-0.091 0.183,-0.182 l 0,-0.365 c 0,-0.103 -0.08,-0.182 -0.183,-0.182 l -1.356,0 c -0.205,0 -0.364,0.159 -0.364,0.364 l 0,6.85 c 0,0.193 0.159,0.364 0.364,0.364 l 1.356,0 c 0.103,0 0.183,-0.091 0.183,-0.182 l 0,-0.365 C 1.174,0.08 1.094,0 0.991,0 L 0,0 Z" />
      </g>
      <g
         transform="translate(729.9563,661.9694)"
         id="g974">
        <path
           inkscape:connector-curvature="0"
           id="path976"
           style="fill:#adafae;fill-opacity:1;fill-rule:nonzero;stroke:none"
           d="m 0,0 0,-6.074 c 0,-0.103 -0.091,-0.183 -0.183,-0.183 l -0.364,0 c -0.103,0 -0.182,0.08 -0.182,0.183 l 0,6.074 c 0,0.33 -0.263,0.593 -0.593,0.593 C -1.641,0.593 -1.904,0.33 -1.904,0 l 0,-6.074 c 0,-0.103 -0.079,-0.183 -0.182,-0.183 l -0.364,0 c -0.103,0 -0.183,0.08 -0.183,0.183 l 0,6.074 c 0,0.33 -0.262,0.593 -0.581,0.593 -0.33,0 -0.593,-0.263 -0.593,-0.593 l 0,-6.074 c 0,-0.103 -0.079,-0.183 -0.182,-0.183 l -0.365,0 c -0.091,0 -0.182,0.08 -0.182,0.183 l 0,6.074 c 0,0.729 0.593,1.322 1.322,1.322 0.365,0 0.707,-0.16 0.946,-0.41 0.239,0.25 0.581,0.41 0.946,0.41 C -0.593,1.322 0,0.729 0,0" />
      </g>
      <g
         transform="translate(734.4448,663.1091)"
         id="g978">
        <path
           inkscape:connector-curvature="0"
           id="path980"
           style="fill:#adafae;fill-opacity:1;fill-rule:nonzero;stroke:none"
           d="m 0,0 0,-6.086 c 0,-0.729 -0.593,-1.31 -1.31,-1.31 -0.73,0 -1.323,0.581 -1.323,1.31 l 0,6.086 c 0,0.091 0.092,0.182 0.183,0.182 l 0.365,0 c 0.102,0 0.182,-0.091 0.182,-0.182 l 0,-6.086 c 0,-0.319 0.262,-0.581 0.593,-0.581 0.319,0 0.581,0.262 0.581,0.581 l 0,6.086 c 0,0.091 0.08,0.182 0.182,0.182 l 0.365,0 C -0.08,0.182 0,0.091 0,0" />
      </g>
      <g
         transform="translate(738.205,661.9694)"
         id="g982">
        <path
           inkscape:connector-curvature="0"
           id="path984"
           style="fill:#adafae;fill-opacity:1;fill-rule:nonzero;stroke:none"
           d="m 0,0 c 0,0.33 -0.262,0.593 -0.581,0.593 l -0.593,0 0,-6.12 0.593,0 C -0.262,-5.527 0,-5.265 0,-4.946 L 0,0 Z m 0.729,0 0,-4.946 c 0,-0.718 -0.581,-1.311 -1.31,-1.311 l -0.957,0 c -0.194,0 -0.365,0.16 -0.365,0.365 l 0,6.849 c 0,0.194 0.171,0.365 0.365,0.365 l 0.957,0 c 0.729,0 1.31,-0.593 1.31,-1.322" />
      </g>
      <g
         transform="translate(742.6946,661.9694)"
         id="g986">
        <path
           inkscape:connector-curvature="0"
           id="path988"
           style="fill:#adafae;fill-opacity:1;fill-rule:nonzero;stroke:none"
           d="M 0,0 C 0,0.33 -0.262,0.593 -0.581,0.593 -0.911,0.593 -1.174,0.33 -1.174,0 l 0,-2.097 1.174,0 L 0,0 Z m 0.729,0 0,-6.074 c 0,-0.103 -0.079,-0.183 -0.182,-0.183 l -0.364,0 C 0.08,-6.257 0,-6.177 0,-6.074 l 0,3.248 -1.174,0 0,-3.248 c 0,-0.103 -0.079,-0.183 -0.182,-0.183 l -0.364,0 c -0.092,0 -0.183,0.08 -0.183,0.183 l 0,6.074 c 0,0.729 0.593,1.322 1.322,1.322 0.718,0 1.31,-0.593 1.31,-1.322" />
      </g>
      <g
         transform="translate(749.8167,661.9694)"
         id="g990">
        <path
           inkscape:connector-curvature="0"
           id="path992"
           style="fill:#adafae;fill-opacity:1;fill-rule:nonzero;stroke:none"
           d="m 0,0 0,-6.074 c 0,-0.103 -0.091,-0.183 -0.183,-0.183 l -0.364,0 c -0.103,0 -0.182,0.08 -0.182,0.183 l 0,6.074 c 0,0.33 -0.263,0.593 -0.593,0.593 C -1.641,0.593 -1.904,0.33 -1.904,0 l 0,-6.074 c 0,-0.103 -0.079,-0.183 -0.182,-0.183 l -0.364,0 c -0.103,0 -0.183,0.08 -0.183,0.183 l 0,6.074 c 0,0.33 -0.262,0.593 -0.581,0.593 -0.33,0 -0.593,-0.263 -0.593,-0.593 l 0,-6.074 c 0,-0.103 -0.079,-0.183 -0.182,-0.183 l -0.365,0 c -0.091,0 -0.182,0.08 -0.182,0.183 l 0,6.074 c 0,0.729 0.593,1.322 1.322,1.322 0.365,0 0.707,-0.16 0.946,-0.41 0.239,0.25 0.581,0.41 0.946,0.41 C -0.593,1.322 0,0.729 0,0" />
      </g>
      <g
         transform="translate(756.1286,661.9694)"
         id="g994">
        <path
           inkscape:connector-curvature="0"
           id="path996"
           style="fill:#adafae;fill-opacity:1;fill-rule:nonzero;stroke:none"
           d="M 0,0 C 0,0.33 -0.262,0.593 -0.581,0.593 -0.911,0.593 -1.174,0.33 -1.174,0 l 0,-2.097 1.174,0 L 0,0 Z m 0.729,0 0,-6.074 c 0,-0.103 -0.079,-0.183 -0.182,-0.183 l -0.364,0 C 0.08,-6.257 0,-6.177 0,-6.074 l 0,3.248 -1.174,0 0,-3.248 c 0,-0.103 -0.079,-0.183 -0.182,-0.183 l -0.364,0 c -0.092,0 -0.183,0.08 -0.183,0.183 l 0,6.074 c 0,0.729 0.593,1.322 1.322,1.322 0.718,0 1.31,-0.593 1.31,-1.322" />
      </g>
      <g
         transform="translate(763.8888,663.1091)"
         id="g998">
        <path
           inkscape:connector-curvature="0"
           id="path1000"
           style="fill:#adafae;fill-opacity:1;fill-rule:nonzero;stroke:none"
           d="m 0,0 0,-0.012 0,-5.481 c 0,-0.262 -0.08,-0.513 -0.216,-0.73 l -0.616,-1.082 c -0.034,-0.057 -0.091,-0.091 -0.16,-0.091 l -0.638,0 c -0.068,0 -0.125,0.034 -0.159,0.091 l -0.615,1.082 c -0.138,0.217 -0.217,0.468 -0.217,0.73 l 0,5.493 c 0,0.091 0.079,0.182 0.182,0.182 l 0.365,0 c 0.091,0 0.182,-0.091 0.182,-0.182 l 0,-5.493 c 0,-0.069 0.012,-0.126 0.023,-0.183 l 0.558,-0.98 0.547,0.98 c 0.023,0.057 0.035,0.114 0.035,0.183 l 0,5.493 c 0,0.091 0.079,0.182 0.182,0.182 l 0.364,0 C -0.08,0.182 0,0.091 0,0" />
      </g>
      <g
         transform="translate(766.4864,655.8951)"
         id="g1002">
        <path
           inkscape:connector-curvature="0"
           id="path1004"
           style="fill:#adafae;fill-opacity:1;fill-rule:nonzero;stroke:none"
           d="m 0,0 c 0,-0.103 -0.08,-0.182 -0.182,-0.182 l -0.365,0 c -0.103,0 -0.182,0.079 -0.182,0.182 l 0,7.202 0,0.012 c 0,0.091 0.079,0.182 0.182,0.182 l 0.365,0 C -0.08,7.396 0,7.305 0,7.214 L 0,0 Z" />
      </g>
      <g
         transform="translate(770.2466,661.9694)"
         id="g1006">
        <path
           inkscape:connector-curvature="0"
           id="path1008"
           style="fill:#adafae;fill-opacity:1;fill-rule:nonzero;stroke:none"
           d="m 0,0 c 0,0.33 -0.262,0.593 -0.581,0.593 l -0.593,0 0,-6.12 0.593,0 C -0.262,-5.527 0,-5.265 0,-4.946 L 0,0 Z m 0.729,0 0,-4.946 c 0,-0.718 -0.581,-1.311 -1.31,-1.311 l -0.957,0 c -0.194,0 -0.365,0.16 -0.365,0.365 l 0,6.849 c 0,0.194 0.171,0.365 0.365,0.365 l 0.957,0 c 0.729,0 1.31,-0.593 1.31,-1.322" />
      </g>
      <g
         transform="translate(774.7363,661.9694)"
         id="g1010">
        <path
           inkscape:connector-curvature="0"
           id="path1012"
           style="fill:#adafae;fill-opacity:1;fill-rule:nonzero;stroke:none"
           d="M 0,0 C 0,0.33 -0.262,0.593 -0.581,0.593 -0.911,0.593 -1.174,0.33 -1.174,0 l 0,-2.097 1.174,0 L 0,0 Z m 0.729,0 0,-6.074 c 0,-0.103 -0.079,-0.183 -0.182,-0.183 l -0.364,0 C 0.08,-6.257 0,-6.177 0,-6.074 l 0,3.248 -1.174,0 0,-3.248 c 0,-0.103 -0.079,-0.183 -0.182,-0.183 l -0.364,0 c -0.092,0 -0.183,0.08 -0.183,0.183 l 0,6.074 c 0,0.729 0.593,1.322 1.322,1.322 0.718,0 1.31,-0.593 1.31,-1.322" />
      </g>
    </g>
  </g>
</svg>
