<?xml version="1.0" encoding="UTF-8" standalone="no"?>
<!-- Created with Inkscape (http://www.inkscape.org/) -->

<svg
   xmlns:dc="http://purl.org/dc/elements/1.1/"
   xmlns:cc="http://creativecommons.org/ns#"
   xmlns:rdf="http://www.w3.org/1999/02/22-rdf-syntax-ns#"
   xmlns:svg="http://www.w3.org/2000/svg"
   xmlns="http://www.w3.org/2000/svg"
   xmlns:sodipodi="http://sodipodi.sourceforge.net/DTD/sodipodi-0.dtd"
   xmlns:inkscape="http://www.inkscape.org/namespaces/inkscape"
   width="348"
   height="92"
   viewBox="0 0 348 92.000002"
   id="svg5734"
   version="1.1"
   inkscape:version="0.91 r13725"
   sodipodi:docname="logo-footer.svg">
  <defs
     id="defs5736">
    <linearGradient
       x1="0"
       y1="0"
       x2="1"
       y2="0"
       gradientUnits="userSpaceOnUse"
       gradientTransform="matrix(99.666092,0,0,-99.666092,503.19836,685.16229)"
       spreadMethod="pad"
       id="linearGradient856">
      <stop
         style="stop-opacity:1;stop-color:#5dbbe0"
         offset="0"
         id="stop858" />
      <stop
         style="stop-opacity:1;stop-color:#5dbbe0"
         offset="0.00027639"
         id="stop860" />
      <stop
         style="stop-opacity:1;stop-color:#dbaf85"
         offset="1"
         id="stop862" />
    </linearGradient>
  </defs>
  <sodipodi:namedview
     id="base"
     pagecolor="#ffffff"
     bordercolor="#666666"
     borderopacity="1.0"
     inkscape:pageopacity="0.0"
     inkscape:pageshadow="2"
     inkscape:zoom="0.98994949"
     inkscape:cx="308.49654"
     inkscape:cy="-36.587348"
     inkscape:document-units="px"
     inkscape:current-layer="layer1"
     showgrid="false"
     units="px"
     inkscape:window-width="1360"
     inkscape:window-height="715"
     inkscape:window-x="-8"
     inkscape:window-y="-8"
     inkscape:window-maximized="1" />
  <metadata
     id="metadata5739">
    <rdf:RDF>
      <cc:Work
         rdf:about="">
        <dc:format>image/svg+xml</dc:format>
        <dc:type
           rdf:resource="http://purl.org/dc/dcmitype/StillImage" />
        <dc:title></dc:title>
      </cc:Work>
    </rdf:RDF>
  </metadata>
  <g
     inkscape:label="Camada 1"
     inkscape:groupmode="layer"
     id="layer1"
     transform="translate(0,-960.36216)">
    <g
       id="g6948"
       transform="matrix(1.8128257,0,0,1.8128257,-410.16253,-1002.1046)">
      <g
         transform="matrix(1.25,0,0,-1.25,294.89466,1131.0024)"
         id="g1014">
        <path
           inkscape:connector-curvature="0"
           id="path1016"
           style="fill:#ffffff;fill-opacity:1;fill-rule:nonzero;stroke:none"
           d="m 0,0 -11.256,0 0,16.178 c 0.131,0.062 0.256,0.142 0.364,0.25 0.507,0.508 0.507,1.334 0,1.842 -0.508,0.507 -1.334,0.507 -1.842,0 -0.246,-0.246 -0.382,-0.573 -0.382,-0.921 0,-0.348 0.136,-0.675 0.382,-0.921 0.108,-0.108 0.232,-0.188 0.363,-0.25 l 0,-16.178 -13.406,0 0,10.992 c 0.131,0.062 0.255,0.142 0.364,0.251 0.507,0.507 0.507,1.334 -0.001,1.841 -0.507,0.508 -1.333,0.508 -1.841,0 -0.246,-0.246 -0.382,-0.573 -0.382,-0.921 0,-0.347 0.136,-0.675 0.382,-0.92 0.108,-0.109 0.232,-0.189 0.363,-0.251 l 0,-10.992 -2.09,0 0,15.988 c 0.133,0.063 0.257,0.145 0.364,0.252 0.246,0.245 0.381,0.573 0.381,0.92 0,0.348 -0.135,0.675 -0.381,0.921 l 0,0 c -0.246,0.246 -0.573,0.382 -0.921,0.382 -0.348,0 -0.675,-0.136 -0.921,-0.382 -0.246,-0.246 -0.381,-0.573 -0.381,-0.921 0,-0.347 0.135,-0.675 0.381,-0.92 0.107,-0.107 0.231,-0.189 0.364,-0.252 l 0,-15.988 -14.384,0 0,18.478 c 0.131,0.062 0.255,0.142 0.363,0.25 0.246,0.246 0.382,0.573 0.382,0.921 0,0.348 -0.136,0.675 -0.382,0.921 -0.507,0.507 -1.334,0.508 -1.841,0 -0.247,-0.246 -0.382,-0.573 -0.382,-0.921 0,-0.348 0.135,-0.675 0.382,-0.921 0.108,-0.108 0.232,-0.188 0.363,-0.25 l 0,-18.478 -7.594,0 0,27.782 14.518,0 0,-20 c -0.131,-0.062 -0.255,-0.142 -0.363,-0.251 -0.508,-0.507 -0.508,-1.333 0,-1.841 0.253,-0.254 0.587,-0.381 0.92,-0.381 0.334,0 0.667,0.127 0.921,0.381 0.508,0.508 0.508,1.334 0,1.841 -0.108,0.109 -0.232,0.189 -0.363,0.251 l 0,20 6.799,0 c 0.511,-0.856 1.313,-1.527 2.306,-1.837 2.086,-0.653 4.056,0.254 5.03,1.837 l 14.814,0 0,-21.89 C -8.738,5.83 -8.862,5.75 -8.97,5.642 -9.216,5.396 -9.352,5.069 -9.352,4.721 c 0,-0.348 0.136,-0.675 0.382,-0.921 0.254,-0.254 0.587,-0.381 0.921,-0.381 0.333,0 0.667,0.127 0.921,0.381 0.246,0.246 0.381,0.573 0.381,0.921 0,0.348 -0.135,0.675 -0.381,0.921 l 0,0 C -7.237,5.75 -7.361,5.83 -7.492,5.892 l 0,21.89 7.492,0 L 0,0 Z m 0.038,29.176 -22.909,0 c 0.055,0.274 0.086,0.558 0.086,0.849 0,1.903 -1.247,3.52 -2.965,4.081 l 0,3.553 c 0,0.367 -0.298,0.665 -0.665,0.665 -0.367,0 -0.664,-0.298 -0.664,-0.665 l 0,-3.34 0,-0.597 0,-0.166 c 0,-0.307 0.209,-0.563 0.493,-0.639 0.059,-0.03 0.122,-0.056 0.189,-0.073 1.439,-0.348 2.463,-1.773 2.167,-3.37 -0.019,-0.102 -0.045,-0.201 -0.074,-0.298 l -4.126,0 c 0.381,-0.679 1.028,-1.194 1.814,-1.394 l 1.379,0 c -0.368,-0.302 -0.809,-0.517 -1.291,-0.607 -1.546,-0.286 -2.931,0.663 -3.334,2.029 -0.141,0.479 -0.559,0.821 -1.058,0.821 l -0.453,0 -10e-4,0 c 0,-0.289 0.032,-0.572 0.087,-0.849 l -21.94,0 c -0.747,0 -1.355,-0.608 -1.355,-1.356 l 0,-27.858 c 0,-0.747 0.608,-1.355 1.355,-1.355 l 53.265,0 c 0.747,0 1.355,0.608 1.355,1.355 l 0,27.858 c 0,0.748 -0.608,1.356 -1.355,1.356" />
      </g>
      <g
         transform="matrix(1.25,0,0,-1.25,308.20266,1099.8115)"
         id="g1018">
        <path
           inkscape:connector-curvature="0"
           id="path1020"
           style="fill:#ffffff;fill-opacity:1;fill-rule:nonzero;stroke:none"
           d="m 0,0 0,-5.081 1.865,0 c 0.193,0 0.343,-0.15 0.343,-0.343 l 0,-0.686 c 0,-0.172 -0.15,-0.343 -0.343,-0.343 l -1.865,0 0,-6.089 c 0,-0.193 -0.15,-0.343 -0.343,-0.343 l -0.686,0 c -0.193,0 -0.343,0.15 -0.343,0.343 l 0,13.228 c 0,0.365 0.322,0.686 0.686,0.686 l 2.551,0 c 0.193,0 0.343,-0.171 0.343,-0.343 l 0,-0.686 C 2.208,0.15 2.058,0 1.865,0 L 0,0 Z" />
      </g>
      <g
         transform="matrix(1.25,0,0,-1.25,328.05116,1098.5251)"
         id="g1022">
        <path
           inkscape:connector-curvature="0"
           id="path1024"
           style="fill:#ffffff;fill-opacity:1;fill-rule:nonzero;stroke:none"
           d="m 0,0 0,-0.686 c 0,-0.193 -0.15,-0.343 -0.343,-0.343 l -0.965,0 0,-12.542 c 0,-0.193 -0.15,-0.343 -0.343,-0.343 l -0.686,0 c -0.193,0 -0.343,0.15 -0.343,0.343 l 0,12.542 -0.965,0 c -0.193,0 -0.343,0.15 -0.343,0.343 l 0,0.686 c 0,0.172 0.15,0.343 0.343,0.343 l 3.302,0 C -0.15,0.343 0,0.172 0,0" />
      </g>
      <g
         transform="matrix(1.25,0,0,-1.25,334.67704,1101.1225)"
         id="g1026">
        <path
           inkscape:connector-curvature="0"
           id="path1028"
           style="fill:#ffffff;fill-opacity:1;fill-rule:nonzero;stroke:none"
           d="M 0,0 C 0,0.622 -0.493,1.115 -1.093,1.115 -1.715,1.115 -2.208,0.622 -2.208,0 l 0,-9.305 c 0,-0.6 0.493,-1.093 1.115,-1.093 0.6,0 1.093,0.493 1.093,1.093 L 0,0 Z m 1.372,0 0,-9.305 c 0,-1.372 -1.115,-2.465 -2.465,-2.465 -1.372,0 -2.487,1.093 -2.487,2.465 l 0,9.305 c 0,1.372 1.115,2.487 2.487,2.487 1.35,0 2.465,-1.115 2.465,-2.487" />
      </g>
      <g
         transform="matrix(1.25,0,0,-1.25,318.80991,1101.1225)"
         id="g1030">
        <path
           inkscape:connector-curvature="0"
           id="path1032"
           style="fill:#ffffff;fill-opacity:1;fill-rule:nonzero;stroke:none"
           d="M 0,0 C 0,0.622 -0.493,1.115 -1.093,1.115 -1.715,1.115 -2.208,0.622 -2.208,0 l 0,-9.305 c 0,-0.6 0.493,-1.093 1.115,-1.093 0.6,0 1.093,0.493 1.093,1.093 L 0,0 Z m 1.372,0 0,-9.305 c 0,-1.372 -1.115,-2.465 -2.465,-2.465 -1.372,0 -2.487,1.093 -2.487,2.465 l 0,9.305 c 0,1.372 1.115,2.487 2.487,2.487 1.35,0 2.465,-1.115 2.465,-2.487" />
      </g>
      <g
         transform="matrix(1.25,0,0,-1.25,377.28979,1098.4633)"
         id="g1034">
        <path
           inkscape:connector-curvature="0"
           id="path1036"
           style="fill:#ffffff;fill-opacity:1;fill-rule:nonzero;stroke:none"
           d="m 0,0 0,-0.686 c 0,-0.193 -0.15,-0.343 -0.343,-0.343 l -0.965,0 0,-12.542 c 0,-0.193 -0.15,-0.343 -0.343,-0.343 l -0.686,0 c -0.193,0 -0.343,0.15 -0.343,0.343 l 0,12.542 -0.965,0 c -0.193,0 -0.343,0.15 -0.343,0.343 l 0,0.686 c 0,0.172 0.15,0.343 0.343,0.343 l 3.302,0 C -0.15,0.343 0,0.172 0,0" />
      </g>
      <g
         transform="matrix(1.25,0,0,-1.25,349.38292,1102.0275)"
         id="g1038">
        <path
           inkscape:connector-curvature="0"
           id="path1040"
           style="fill:#ffffff;fill-opacity:1;fill-rule:nonzero;stroke:none"
           d="m 0,0 0,0.729 c 0,0.6 -0.493,1.093 -1.093,1.093 -0.601,0 -1.094,-0.493 -1.094,-1.093 l 0,-9.326 c 0,-0.6 0.493,-1.094 1.094,-1.094 0.6,0 1.093,0.494 1.093,1.094 l 0,0.793 c 0,0.193 0.15,0.343 0.343,0.343 l 0.686,0 c 0.193,0 0.343,-0.15 0.343,-0.343 l 0,-0.793 c 0,-1.351 -1.115,-2.466 -2.465,-2.466 -1.373,0 -2.466,1.115 -2.466,2.466 l 0,9.326 c 0,1.351 1.093,2.466 2.466,2.466 1.35,0 2.465,-1.115 2.465,-2.466 L 1.372,0 c 0,-0.193 -0.15,-0.343 -0.343,-0.343 l -0.686,0 C 0.15,-0.343 0,-0.193 0,0" />
      </g>
      <g
         transform="matrix(1.25,0,0,-1.25,358.94504,1101.1431)"
         id="g1042">
        <path
           inkscape:connector-curvature="0"
           id="path1044"
           style="fill:#ffffff;fill-opacity:1;fill-rule:nonzero;stroke:none"
           d="M 0,0 C 0,0.622 -0.493,1.115 -1.093,1.115 -1.715,1.115 -2.208,0.622 -2.208,0 l 0,-9.305 c 0,-0.6 0.493,-1.093 1.115,-1.093 0.6,0 1.093,0.493 1.093,1.093 L 0,0 Z m 1.372,0 0,-9.305 c 0,-1.372 -1.115,-2.465 -2.465,-2.465 -1.372,0 -2.487,1.093 -2.487,2.465 l 0,9.305 c 0,1.372 1.115,2.487 2.487,2.487 1.35,0 2.465,-1.115 2.465,-2.487" />
      </g>
      <g
         transform="matrix(1.25,0,0,-1.25,370.19954,1101.1225)"
         id="g1046">
        <path
           inkscape:connector-curvature="0"
           id="path1048"
           style="fill:#ffffff;fill-opacity:1;fill-rule:nonzero;stroke:none"
           d="m 0,0 0,-11.427 c 0,-0.193 -0.15,-0.343 -0.343,-0.343 l -0.686,0 c -0.193,0 -0.343,0.15 -0.343,0.343 l 0,11.427 c 0,0.622 -0.493,1.115 -1.094,1.115 C -3.087,1.115 -3.58,0.622 -3.58,0 l 0,-11.427 c 0,-0.193 -0.15,-0.343 -0.343,-0.343 l -0.686,0 c -0.193,0 -0.344,0.15 -0.344,0.343 l 0,11.427 c 0,1.372 1.115,2.487 2.487,2.487 C -1.115,2.487 0,1.372 0,0" />
      </g>
      <g
         transform="matrix(1.25,0,0,-1.25,400.24329,1101.1431)"
         id="g1050">
        <path
           inkscape:connector-curvature="0"
           id="path1052"
           style="fill:#ffffff;fill-opacity:1;fill-rule:nonzero;stroke:none"
           d="m 0,0 0,-11.427 c 0,-0.193 -0.15,-0.343 -0.343,-0.343 l -0.686,0 c -0.193,0 -0.343,0.15 -0.343,0.343 l 0,11.427 c 0,0.622 -0.493,1.115 -1.093,1.115 C -3.087,1.115 -3.58,0.622 -3.58,0 l 0,-11.427 c 0,-0.193 -0.15,-0.343 -0.343,-0.343 l -0.686,0 c -0.193,0 -0.343,0.15 -0.343,0.343 l 0,11.427 c 0,1.372 1.114,2.487 2.487,2.487 C -1.115,2.487 0,1.372 0,0" />
      </g>
      <g
         transform="matrix(1.25,0,0,-1.25,405.39129,1099.7908)"
         id="g1054">
        <path
           inkscape:connector-curvature="0"
           id="path1056"
           style="fill:#ffffff;fill-opacity:1;fill-rule:nonzero;stroke:none"
           d="m 0,0 0,-5.081 1.865,0 c 0.193,0 0.343,-0.15 0.343,-0.343 l 0,-0.686 c 0,-0.172 -0.15,-0.343 -0.343,-0.343 l -1.865,0 0,-5.06 1.865,0 c 0.193,0 0.343,-0.171 0.343,-0.343 l 0,-0.686 c 0,-0.193 -0.15,-0.343 -0.343,-0.343 l -2.551,0 c -0.386,0 -0.686,0.3 -0.686,0.686 l 0,12.885 c 0,0.364 0.3,0.686 0.686,0.686 l 2.551,0 c 0.193,0 0.343,-0.171 0.343,-0.343 l 0,-0.686 C 2.208,0.15 2.058,0 1.865,0 L 0,0 Z" />
      </g>
      <g
         transform="matrix(1.25,0,0,-1.25,416.09466,1101.1844)"
         id="g1058">
        <path
           inkscape:connector-curvature="0"
           id="path1060"
           style="fill:#ffffff;fill-opacity:1;fill-rule:nonzero;stroke:none"
           d="m 0,0 c 0,0.622 -0.493,1.115 -1.093,1.115 l -1.094,0 0,-5.06 1.094,0 c 0.6,0 1.093,0.493 1.093,1.093 L 0,0 Z m 1.372,-2.852 c 0,-0.707 -0.279,-1.329 -0.75,-1.779 0.471,-0.45 0.75,-1.093 0.75,-1.801 l 0,-4.995 c 0,-0.193 -0.15,-0.343 -0.343,-0.343 l -0.686,0 C 0.15,-11.77 0,-11.62 0,-11.427 l 0,4.995 c 0,0.622 -0.493,1.115 -1.093,1.115 l -1.094,0 0,-6.11 c 0,-0.193 -0.171,-0.343 -0.343,-0.343 l -0.686,0 c -0.193,0 -0.343,0.15 -0.343,0.343 l 0,13.228 c 0,0.364 0.3,0.686 0.686,0.686 l 1.78,0 C 0.279,2.487 1.372,1.372 1.372,0 l 0,-2.852 z" />
      </g>
      <g
         transform="matrix(1.25,0,0,-1.25,383.79179,1101.1431)"
         id="g1062">
        <path
           inkscape:connector-curvature="0"
           id="path1064"
           style="fill:#ffffff;fill-opacity:1;fill-rule:nonzero;stroke:none"
           d="M 0,0 C 0,0.622 -0.493,1.115 -1.093,1.115 -1.715,1.115 -2.208,0.622 -2.208,0 l 0,-3.945 2.208,0 L 0,0 Z m 1.372,0 0,-11.427 c 0,-0.193 -0.15,-0.343 -0.343,-0.343 l -0.686,0 C 0.15,-11.77 0,-11.62 0,-11.427 l 0,6.11 -2.208,0 0,-6.11 c 0,-0.193 -0.15,-0.343 -0.343,-0.343 l -0.686,0 c -0.172,0 -0.343,0.15 -0.343,0.343 L -3.58,0 c 0,1.372 1.115,2.487 2.487,2.487 1.35,0 2.465,-1.115 2.465,-2.487" />
      </g>
      <g
         transform="matrix(1.25,0,0,-1.25,390.61979,1115.4271)"
         id="g1066">
        <path
           inkscape:connector-curvature="0"
           id="path1068"
           style="fill:#ffffff;fill-opacity:1;fill-rule:nonzero;stroke:none"
           d="m 0,0 c 0,-0.193 -0.15,-0.343 -0.343,-0.343 l -0.686,0 c -0.193,0 -0.343,0.15 -0.343,0.343 l 0,13.55 0,0.021 c 0,0.172 0.15,0.343 0.343,0.343 l 0.686,0 C -0.15,13.914 0,13.743 0,13.571 L 0,0 Z" />
      </g>
      <g
         transform="matrix(1.25,0,0,-1.25,363.04917,1122.3523)"
         id="g1070">
        <path
           inkscape:connector-curvature="0"
           id="path1072"
           style="fill:#ffffff;fill-opacity:1;fill-rule:nonzero;stroke:none"
           d="M 0,0 -0.33,0 -0.656,0 -0.8,0 c -0.059,0 -0.104,-0.045 -0.104,-0.104 l 0,-0.208 c 0,-0.052 0.045,-0.104 0.104,-0.104 l 0.447,0 0.327,0 0.026,0 c 0.058,0 0.104,0.045 0.104,0.104 l 0,0.208 C 0.104,-0.052 0.058,0 0,0" />
      </g>
      <g
         transform="matrix(1.25,0,0,-1.25,347.78191,1124.4674)"
         id="g1074">
        <path
           inkscape:connector-curvature="0"
           id="path1076"
           style="fill:#ffffff;fill-opacity:1;fill-rule:nonzero;stroke:none"
           d="m 0,0 0,0.218 c 0,0.179 -0.147,0.326 -0.326,0.326 -0.18,0 -0.327,-0.147 -0.327,-0.326 l 0,-2.785 c 0,-0.179 0.147,-0.326 0.327,-0.326 0.179,0 0.326,0.147 0.326,0.326 l 0,0.237 c 0,0.058 0.045,0.102 0.102,0.102 l 0.205,0 c 0.058,0 0.103,-0.044 0.103,-0.102 l 0,-0.237 c 0,-0.403 -0.333,-0.736 -0.736,-0.736 -0.41,0 -0.737,0.333 -0.737,0.736 l 0,2.785 c 0,0.403 0.327,0.736 0.737,0.736 0.403,0 0.736,-0.333 0.736,-0.736 L 0.41,0 c 0,-0.058 -0.045,-0.102 -0.103,-0.102 l -0.205,0 C 0.045,-0.102 0,-0.058 0,0" />
      </g>
      <g
         transform="matrix(1.25,0,0,-1.25,350.85366,1124.2034)"
         id="g1078">
        <path
           inkscape:connector-curvature="0"
           id="path1080"
           style="fill:#ffffff;fill-opacity:1;fill-rule:nonzero;stroke:none"
           d="M 0,0 C 0,0.186 -0.147,0.333 -0.327,0.333 -0.512,0.333 -0.659,0.186 -0.659,0 l 0,-2.778 c 0,-0.179 0.147,-0.326 0.332,-0.326 0.18,0 0.327,0.147 0.327,0.326 L 0,0 Z m 0.41,0 0,-2.778 c 0,-0.409 -0.333,-0.736 -0.737,-0.736 -0.409,0 -0.742,0.327 -0.742,0.736 l 0,2.778 c 0,0.41 0.333,0.743 0.742,0.743 C 0.077,0.743 0.41,0.41 0.41,0" />
      </g>
      <g
         transform="matrix(1.25,0,0,-1.25,354.51766,1124.2034)"
         id="g1082">
        <path
           inkscape:connector-curvature="0"
           id="path1084"
           style="fill:#ffffff;fill-opacity:1;fill-rule:nonzero;stroke:none"
           d="m 0,0 0,-3.411 c 0,-0.058 -0.045,-0.103 -0.102,-0.103 l -0.205,0 c -0.058,0 -0.103,0.045 -0.103,0.103 l 0,3.411 c 0,0.186 -0.147,0.333 -0.326,0.333 -0.186,0 -0.333,-0.147 -0.333,-0.333 l 0,-3.411 c 0,-0.058 -0.045,-0.103 -0.102,-0.103 l -0.205,0 c -0.058,0 -0.103,0.045 -0.103,0.103 l 0,3.411 c 0,0.41 0.333,0.743 0.743,0.743 C -0.333,0.743 0,0.41 0,0" />
      </g>
      <g
         transform="matrix(1.25,0,0,-1.25,356.33329,1123.7874)"
         id="g1086">
        <path
           inkscape:connector-curvature="0"
           id="path1088"
           style="fill:#ffffff;fill-opacity:1;fill-rule:nonzero;stroke:none"
           d="m 0,0 0,-1.517 0.557,0 c 0.057,0 0.102,-0.045 0.102,-0.102 l 0,-0.205 c 0,-0.051 -0.045,-0.103 -0.102,-0.103 l -0.557,0 0,-1.51 0.557,0 c 0.057,0 0.102,-0.051 0.102,-0.103 l 0,-0.204 c 0,-0.058 -0.045,-0.103 -0.102,-0.103 l -0.762,0 c -0.115,0 -0.205,0.09 -0.205,0.205 l 0,3.847 c 0,0.109 0.09,0.205 0.205,0.205 l 0.762,0 c 0.057,0 0.102,-0.052 0.102,-0.103 l 0,-0.205 C 0.659,0.045 0.614,0 0.557,0 L 0,0 Z" />
      </g>
      <g
         transform="matrix(1.25,0,0,-1.25,360.14929,1125.1236)"
         id="g1090">
        <path
           inkscape:connector-curvature="0"
           id="path1092"
           style="fill:#ffffff;fill-opacity:1;fill-rule:nonzero;stroke:none"
           d="M 0,0 -0.371,-0.659 0,-1.325 c 0.083,-0.121 0.128,-0.262 0.128,-0.409 l 0,-0.941 c 0,-0.058 -0.045,-0.103 -0.102,-0.103 l -0.205,0 c -0.058,0 -0.103,0.045 -0.103,0.103 l 0,0.941 c 0,0.038 -0.006,0.07 -0.019,0.102 l -0.314,0.55 -0.307,-0.55 c -0.012,-0.032 -0.019,-0.064 -0.019,-0.102 l 0,-0.941 c 0,-0.058 -0.045,-0.103 -0.102,-0.103 l -0.205,0 c -0.058,0 -0.103,0.045 -0.103,0.103 l 0,0.941 c 0,0.147 0.045,0.288 0.128,0.409 L -0.851,-0.659 -1.223,0 c -0.083,0.122 -0.128,0.262 -0.128,0.41 l 0,0.966 c 0,0.051 0.045,0.103 0.103,0.103 l 0.205,0 c 0.057,0 0.102,-0.052 0.102,-0.103 l 0,-0.966 c 0,-0.039 0.007,-0.071 0.019,-0.103 l 0.307,-0.55 0.314,0.55 c 0.013,0.032 0.019,0.064 0.019,0.103 l 0,0.966 c 0,0.051 0.045,0.103 0.103,0.103 l 0.205,0 c 0.057,0 0.102,-0.052 0.102,-0.103 l 0,-0.966 C 0.128,0.262 0.083,0.122 0,0" />
      </g>
      <g
         transform="matrix(1.25,0,0,-1.25,362.96104,1124.2034)"
         id="g1094">
        <path
           inkscape:connector-curvature="0"
           id="path1096"
           style="fill:#ffffff;fill-opacity:1;fill-rule:nonzero;stroke:none"
           d="M 0,0 C 0,0.186 -0.147,0.333 -0.326,0.333 -0.512,0.333 -0.659,0.186 -0.659,0 l 0,-2.778 c 0,-0.179 0.147,-0.326 0.333,-0.326 0.179,0 0.326,0.147 0.326,0.326 L 0,0 Z m 0.41,0 0,-2.778 c 0,-0.409 -0.333,-0.736 -0.736,-0.736 -0.41,0 -0.743,0.327 -0.743,0.736 l 0,2.778 c 0,0.41 0.333,0.743 0.743,0.743 C 0.077,0.743 0.41,0.41 0.41,0" />
      </g>
      <g
         transform="matrix(1.25,0,0,-1.25,365.27679,1123.7874)"
         id="g1098">
        <path
           inkscape:connector-curvature="0"
           id="path1100"
           style="fill:#ffffff;fill-opacity:1;fill-rule:nonzero;stroke:none"
           d="m 0,0 0,-1.517 0.557,0 c 0.057,0 0.102,-0.045 0.102,-0.102 l 0,-0.205 c 0,-0.051 -0.045,-0.103 -0.102,-0.103 l -0.557,0 0,-1.51 0.557,0 c 0.057,0 0.102,-0.051 0.102,-0.103 l 0,-0.204 c 0,-0.058 -0.045,-0.103 -0.102,-0.103 l -0.762,0 c -0.115,0 -0.205,0.09 -0.205,0.205 l 0,3.847 c 0,0.109 0.09,0.205 0.205,0.205 l 0.762,0 c 0.057,0 0.102,-0.052 0.102,-0.103 l 0,-0.205 C 0.659,0.045 0.614,0 0.557,0 L 0,0 Z" />
      </g>
      <g
         transform="matrix(1.25,0,0,-1.25,368.41266,1124.4674)"
         id="g1102">
        <path
           inkscape:connector-curvature="0"
           id="path1104"
           style="fill:#ffffff;fill-opacity:1;fill-rule:nonzero;stroke:none"
           d="m 0,0 0,0.218 c 0,0.179 -0.147,0.326 -0.327,0.326 -0.179,0 -0.326,-0.147 -0.326,-0.326 l 0,-0.327 c 0,-0.077 0,-0.077 0.019,-0.109 L 0.288,-1.843 C 0.41,-2.061 0.41,-2.061 0.41,-2.247 l 0,-0.32 c 0,-0.409 -0.333,-0.736 -0.737,-0.736 -0.403,0 -0.735,0.327 -0.735,0.736 l 0,0.218 c 0,0.051 0.044,0.102 0.102,0.102 l 0.205,0 c 0.057,0 0.102,-0.051 0.102,-0.102 l 0,-0.218 c 0,-0.185 0.147,-0.332 0.326,-0.332 0.18,0 0.327,0.147 0.327,0.332 l 0,0.32 c 0,0.071 0,0.071 -0.019,0.103 l -0.922,1.626 c -0.121,0.217 -0.121,0.217 -0.121,0.409 l 0,0.327 c 0,0.403 0.332,0.736 0.735,0.736 0.404,0 0.737,-0.333 0.737,-0.736 L 0.41,0 c 0,-0.058 -0.045,-0.102 -0.103,-0.102 l -0.205,0 C 0.045,-0.102 0,-0.058 0,0" />
      </g>
      <g
         transform="matrix(1.25,0,0,-1.25,373.26854,1124.2114)"
         id="g1106">
        <path
           inkscape:connector-curvature="0"
           id="path1108"
           style="fill:#ffffff;fill-opacity:1;fill-rule:nonzero;stroke:none"
           d="M 0,0 C 0,0.186 -0.147,0.333 -0.327,0.333 -0.506,0.333 -0.653,0.186 -0.653,0 l 0,-2.771 c 0,-0.18 0.147,-0.327 0.326,-0.327 0.18,0 0.327,0.147 0.327,0.327 L 0,0 Z m 0.41,0 0,-2.771 c 0,-0.333 -0.224,-0.615 -0.532,-0.705 l 0,-0.339 c 0,-0.051 -0.044,-0.096 -0.102,-0.096 l -0.205,0 c -0.058,0 -0.102,0.045 -0.102,0.096 l 0,0.339 c -0.308,0.09 -0.532,0.372 -0.532,0.705 l 0,2.771 c 0,0.41 0.333,0.736 0.736,0.736 C 0.077,0.736 0.41,0.41 0.41,0" />
      </g>
      <g
         transform="matrix(1.25,0,0,-1.25,376.94029,1123.4032)"
         id="g1110">
        <path
           inkscape:connector-curvature="0"
           id="path1112"
           style="fill:#ffffff;fill-opacity:1;fill-rule:nonzero;stroke:none"
           d="m 0,0 0,-3.418 c 0,-0.41 -0.333,-0.736 -0.736,-0.736 -0.41,0 -0.743,0.326 -0.743,0.736 l 0,3.418 c 0,0.051 0.052,0.102 0.103,0.102 l 0.205,0 c 0.057,0 0.102,-0.051 0.102,-0.102 l 0,-3.418 c 0,-0.179 0.147,-0.326 0.333,-0.326 0.179,0 0.326,0.147 0.326,0.326 l 0,3.418 c 0,0.051 0.045,0.102 0.103,0.102 l 0.205,0 C -0.045,0.102 0,0.051 0,0" />
      </g>
      <g
         transform="matrix(1.25,0,0,-1.25,378.75591,1123.7874)"
         id="g1114">
        <path
           inkscape:connector-curvature="0"
           id="path1116"
           style="fill:#ffffff;fill-opacity:1;fill-rule:nonzero;stroke:none"
           d="m 0,0 0,-1.517 0.557,0 c 0.057,0 0.102,-0.045 0.102,-0.102 l 0,-0.205 c 0,-0.051 -0.045,-0.103 -0.102,-0.103 l -0.557,0 0,-1.51 0.557,0 c 0.057,0 0.102,-0.051 0.102,-0.103 l 0,-0.204 c 0,-0.058 -0.045,-0.103 -0.102,-0.103 l -0.762,0 c -0.115,0 -0.205,0.09 -0.205,0.205 l 0,3.847 c 0,0.109 0.09,0.205 0.205,0.205 l 0.762,0 c 0.057,0 0.102,-0.052 0.102,-0.103 l 0,-0.205 C 0.659,0.045 0.614,0 0.557,0 L 0,0 Z" />
      </g>
      <g
         transform="matrix(1.25,0,0,-1.25,385.86029,1124.2034)"
         id="g1118">
        <path
           inkscape:connector-curvature="0"
           id="path1120"
           style="fill:#ffffff;fill-opacity:1;fill-rule:nonzero;stroke:none"
           d="m 0,0 0,-3.411 c 0,-0.058 -0.051,-0.103 -0.103,-0.103 l -0.204,0 c -0.058,0 -0.103,0.045 -0.103,0.103 l 0,3.411 c 0,0.186 -0.147,0.333 -0.333,0.333 -0.179,0 -0.326,-0.147 -0.326,-0.333 l 0,-3.411 c 0,-0.058 -0.045,-0.103 -0.102,-0.103 l -0.205,0 c -0.058,0 -0.103,0.045 -0.103,0.103 l 0,3.411 c 0,0.186 -0.147,0.333 -0.326,0.333 -0.186,0 -0.333,-0.147 -0.333,-0.333 l 0,-3.411 c 0,-0.058 -0.045,-0.103 -0.102,-0.103 l -0.205,0 c -0.051,0 -0.103,0.045 -0.103,0.103 l 0,3.411 c 0,0.41 0.333,0.743 0.743,0.743 0.205,0 0.397,-0.09 0.531,-0.231 0.135,0.141 0.327,0.231 0.531,0.231 C -0.333,0.743 0,0.41 0,0" />
      </g>
      <g
         transform="matrix(1.25,0,0,-1.25,389.01142,1123.4032)"
         id="g1122">
        <path
           inkscape:connector-curvature="0"
           id="path1124"
           style="fill:#ffffff;fill-opacity:1;fill-rule:nonzero;stroke:none"
           d="m 0,0 0,-3.418 c 0,-0.41 -0.333,-0.736 -0.736,-0.736 -0.41,0 -0.743,0.326 -0.743,0.736 l 0,3.418 c 0,0.051 0.052,0.102 0.103,0.102 l 0.205,0 c 0.057,0 0.102,-0.051 0.102,-0.102 l 0,-3.418 c 0,-0.179 0.147,-0.326 0.333,-0.326 0.179,0 0.326,0.147 0.326,0.326 l 0,3.418 c 0,0.051 0.045,0.102 0.103,0.102 l 0.205,0 C -0.045,0.102 0,0.051 0,0" />
      </g>
      <g
         transform="matrix(1.25,0,0,-1.25,391.65129,1124.2034)"
         id="g1126">
        <path
           inkscape:connector-curvature="0"
           id="path1128"
           style="fill:#ffffff;fill-opacity:1;fill-rule:nonzero;stroke:none"
           d="m 0,0 c 0,0.186 -0.147,0.333 -0.326,0.333 l -0.333,0 0,-3.437 0.333,0 C -0.147,-3.104 0,-2.957 0,-2.778 L 0,0 Z m 0.41,0 0,-2.778 c 0,-0.403 -0.327,-0.736 -0.736,-0.736 l -0.538,0 c -0.109,0 -0.205,0.09 -0.205,0.205 l 0,3.847 c 0,0.108 0.096,0.205 0.205,0.205 l 0.538,0 C 0.083,0.743 0.41,0.41 0.41,0" />
      </g>
      <g
         transform="matrix(1.25,0,0,-1.25,394.80316,1124.2034)"
         id="g1130">
        <path
           inkscape:connector-curvature="0"
           id="path1132"
           style="fill:#ffffff;fill-opacity:1;fill-rule:nonzero;stroke:none"
           d="M 0,0 C 0,0.186 -0.147,0.333 -0.326,0.333 -0.512,0.333 -0.659,0.186 -0.659,0 l 0,-1.178 0.659,0 L 0,0 Z m 0.41,0 0,-3.411 c 0,-0.058 -0.045,-0.103 -0.103,-0.103 l -0.204,0 C 0.045,-3.514 0,-3.469 0,-3.411 l 0,1.824 -0.659,0 0,-1.824 c 0,-0.058 -0.045,-0.103 -0.102,-0.103 l -0.205,0 c -0.052,0 -0.103,0.045 -0.103,0.103 l 0,3.411 c 0,0.41 0.333,0.743 0.743,0.743 C 0.077,0.743 0.41,0.41 0.41,0" />
      </g>
      <g
         transform="matrix(1.25,0,0,-1.25,399.80316,1124.2034)"
         id="g1134">
        <path
           inkscape:connector-curvature="0"
           id="path1136"
           style="fill:#ffffff;fill-opacity:1;fill-rule:nonzero;stroke:none"
           d="m 0,0 0,-3.411 c 0,-0.058 -0.051,-0.103 -0.103,-0.103 l -0.204,0 c -0.058,0 -0.103,0.045 -0.103,0.103 l 0,3.411 c 0,0.186 -0.147,0.333 -0.332,0.333 -0.18,0 -0.327,-0.147 -0.327,-0.333 l 0,-3.411 c 0,-0.058 -0.045,-0.103 -0.102,-0.103 l -0.205,0 c -0.058,0 -0.103,0.045 -0.103,0.103 l 0,3.411 c 0,0.186 -0.147,0.333 -0.326,0.333 -0.186,0 -0.333,-0.147 -0.333,-0.333 l 0,-3.411 c 0,-0.058 -0.045,-0.103 -0.102,-0.103 l -0.205,0 c -0.051,0 -0.103,0.045 -0.103,0.103 l 0,3.411 c 0,0.41 0.333,0.743 0.743,0.743 0.205,0 0.397,-0.09 0.531,-0.231 0.135,0.141 0.327,0.231 0.532,0.231 C -0.333,0.743 0,0.41 0,0" />
      </g>
      <g
         transform="matrix(1.25,0,0,-1.25,404.23442,1124.2034)"
         id="g1138">
        <path
           inkscape:connector-curvature="0"
           id="path1140"
           style="fill:#ffffff;fill-opacity:1;fill-rule:nonzero;stroke:none"
           d="M 0,0 C 0,0.186 -0.147,0.333 -0.326,0.333 -0.512,0.333 -0.659,0.186 -0.659,0 l 0,-1.178 0.659,0 L 0,0 Z m 0.41,0 0,-3.411 c 0,-0.058 -0.045,-0.103 -0.103,-0.103 l -0.204,0 C 0.045,-3.514 0,-3.469 0,-3.411 l 0,1.824 -0.659,0 0,-1.824 c 0,-0.058 -0.045,-0.103 -0.102,-0.103 l -0.205,0 c -0.052,0 -0.103,0.045 -0.103,0.103 l 0,3.411 c 0,0.41 0.333,0.743 0.743,0.743 C 0.077,0.743 0.41,0.41 0.41,0" />
      </g>
      <g
         transform="matrix(1.25,0,0,-1.25,409.68229,1123.4032)"
         id="g1142">
        <path
           inkscape:connector-curvature="0"
           id="path1144"
           style="fill:#ffffff;fill-opacity:1;fill-rule:nonzero;stroke:none"
           d="m 0,0 0,-0.007 0,-3.078 c 0,-0.147 -0.045,-0.288 -0.122,-0.41 l -0.345,-0.608 c -0.019,-0.032 -0.051,-0.051 -0.09,-0.051 l -0.358,0 c -0.039,0 -0.071,0.019 -0.09,0.051 l -0.345,0.608 c -0.077,0.122 -0.122,0.263 -0.122,0.41 l 0,3.085 c 0,0.051 0.045,0.102 0.102,0.102 l 0.205,0 c 0.051,0 0.102,-0.051 0.102,-0.102 l 0,-3.085 c 0,-0.039 0.007,-0.071 0.013,-0.103 l 0.314,-0.55 0.307,0.55 c 0.013,0.032 0.019,0.064 0.019,0.103 l 0,3.085 c 0,0.051 0.045,0.102 0.103,0.102 l 0.204,0 C -0.045,0.102 0,0.051 0,0" />
      </g>
      <g
         transform="matrix(1.25,0,0,-1.25,411.50604,1128.4677)"
         id="g1146">
        <path
           inkscape:connector-curvature="0"
           id="path1148"
           style="fill:#ffffff;fill-opacity:1;fill-rule:nonzero;stroke:none"
           d="m 0,0 c 0,-0.058 -0.045,-0.102 -0.102,-0.102 l -0.205,0 c -0.058,0 -0.103,0.044 -0.103,0.102 l 0,4.045 0,0.007 c 0,0.051 0.045,0.102 0.103,0.102 l 0.205,0 C -0.045,4.154 0,4.103 0,4.052 L 0,0 Z" />
      </g>
      <g
         transform="matrix(1.25,0,0,-1.25,414.14579,1124.2034)"
         id="g1150">
        <path
           inkscape:connector-curvature="0"
           id="path1152"
           style="fill:#ffffff;fill-opacity:1;fill-rule:nonzero;stroke:none"
           d="m 0,0 c 0,0.186 -0.147,0.333 -0.326,0.333 l -0.333,0 0,-3.437 0.333,0 C -0.147,-3.104 0,-2.957 0,-2.778 L 0,0 Z m 0.41,0 0,-2.778 c 0,-0.403 -0.327,-0.736 -0.736,-0.736 l -0.538,0 c -0.109,0 -0.205,0.09 -0.205,0.205 l 0,3.847 c 0,0.108 0.096,0.205 0.205,0.205 l 0.538,0 C 0.083,0.743 0.41,0.41 0.41,0" />
      </g>
      <g
         transform="matrix(1.25,0,0,-1.25,417.29767,1124.2034)"
         id="g1154">
        <path
           inkscape:connector-curvature="0"
           id="path1156"
           style="fill:#ffffff;fill-opacity:1;fill-rule:nonzero;stroke:none"
           d="M 0,0 C 0,0.186 -0.147,0.333 -0.326,0.333 -0.512,0.333 -0.659,0.186 -0.659,0 l 0,-1.178 0.659,0 L 0,0 Z m 0.41,0 0,-3.411 c 0,-0.058 -0.045,-0.103 -0.103,-0.103 l -0.204,0 C 0.045,-3.514 0,-3.469 0,-3.411 l 0,1.824 -0.659,0 0,-1.824 c 0,-0.058 -0.045,-0.103 -0.102,-0.103 l -0.205,0 c -0.052,0 -0.103,0.045 -0.103,0.103 l 0,3.411 c 0,0.41 0.333,0.743 0.743,0.743 C 0.077,0.743 0.41,0.41 0.41,0" />
      </g>
    </g>
  </g>
</svg>
